<?xml version="1.0" encoding="UTF-8" standalone="no"?><svg xmlns="http://www.w3.org/2000/svg" xmlns:xlink="http://www.w3.org/1999/xlink" contentStyleType="text/css" height="510px" preserveAspectRatio="none" style="width:1496px;height:510px;background:#FFFFFF;" version="1.1" viewBox="0 0 1496 510" width="1496px" zoomAndPan="magnify"><defs/><g><!--cluster graphes--><g id="cluster_graphes"><path d="M8.5,6 L66.5,6 A3.75,3.75 0 0 1 69,8.5 L76,28.4883 L1486.5,28.4883 A2.5,2.5 0 0 1 1489,30.9883 L1489,481.73 A2.5,2.5 0 0 1 1486.5,484.23 L8.5,484.23 A2.5,2.5 0 0 1 6,481.73 L6,8.5 A2.5,2.5 0 0 1 8.5,6 " fill="none" style="stroke:#000000;stroke-width:1.5;"/><line style="stroke:#000000;stroke-width:1.5;" x1="6" x2="76" y1="28.4883" y2="28.4883"/><text fill="#000000" font-family="sans-serif" font-size="14" font-weight="bold" lengthAdjust="spacing" textLength="57" x="10" y="21.5352">graphes</text></g><!--class graphes.Graph--><a href="Graph.html" target="_top" title="Graph.html" xlink:actuate="onRequest" xlink:href="Graph.html" xlink:show="new" xlink:title="Graph.html" xlink:type="simple"><g id="elem_graphes.Graph"><rect codeLine="3" fill="#F1F1F1" height="80.9766" id="graphes.Graph" rx="2.5" ry="2.5" style="stroke:#181818;stroke-width:0.5;" width="914" x="559" y="214.13"/><ellipse cx="990.75" cy="230.13" fill="#ADD1B2" rx="11" ry="11" style="stroke:#181818;stroke-width:1.0;"/><path d="M993.2231,236.2731 Q992.6421,236.5719 992.0029,236.7213 Q991.3638,236.8707 990.6582,236.8707 Q988.1514,236.8707 986.8315,235.2189 Q985.5117,233.567 985.5117,230.4459 Q985.5117,227.3165 986.8315,225.6647 Q988.1514,224.0128 990.6582,224.0128 Q991.3638,224.0128 992.0112,224.1622 Q992.6587,224.3116 993.2231,224.6105 L993.2231,227.3331 Q992.5923,226.7521 991.9988,226.4823 Q991.4053,226.2125 990.7744,226.2125 Q989.4297,226.2125 988.7449,227.2792 Q988.0601,228.3458 988.0601,230.4459 Q988.0601,232.5377 988.7449,233.6044 Q989.4297,234.671 990.7744,234.671 Q991.4053,234.671 991.9988,234.4012 Q992.5923,234.1315 993.2231,233.5504 Z " fill="#000000"/><text fill="#000000" font-family="sans-serif" font-size="14" lengthAdjust="spacing" textLength="42" x="1011.25" y="235.421">Graph</text><line style="stroke:#181818;stroke-width:0.5;" x1="560" x2="1472" y1="246.13" y2="246.13"/><line style="stroke:#181818;stroke-width:0.5;" x1="560" x2="1472" y1="254.13" y2="254.13"/><ellipse cx="570" cy="267.8741" fill="#84BE84" rx="3" ry="3" style="stroke:#038048;stroke-width:1.0;"/><text fill="#000000" font-family="sans-serif" font-size="14" lengthAdjust="spacing" text-decoration="underline" textLength="731" x="579" y="271.6652">pairing(List&lt;Teenager&gt;, CountryName, CountryName, List&lt;Tuple&lt;Teenager&gt;&gt;): List&lt;Tuple&lt;Teenager&gt;&gt;</text><rect fill="#F24D5C" height="6" style="stroke:#C82930;stroke-width:1.0;" width="6" x="567" y="281.3624"/><text fill="#000000" font-family="sans-serif" font-size="14" lengthAdjust="spacing" text-decoration="underline" textLength="888" x="579" y="288.1534">generateGraphAndCalculation(List&lt;Teenager&gt;, CountryName, CountryName, List&lt;Tuple&lt;Teenager&gt;&gt;): List&lt;Arete&lt;Teenager&gt;&gt;</text></g></a><!--class graphes.AffectationUtil--><a href="AffectationUtil.html" target="_top" title="AffectationUtil.html" xlink:actuate="onRequest" xlink:href="AffectationUtil.html" xlink:show="new" xlink:title="AffectationUtil.html" xlink:type="simple"><g id="elem_graphes.AffectationUtil"><rect codeLine="8" fill="#F1F1F1" height="427.2305" id="graphes.AffectationUtil" rx="2.5" ry="2.5" style="stroke:#181818;stroke-width:0.5;" width="503" x="21.5" y="41"/><ellipse cx="219.75" cy="57" fill="#ADD1B2" rx="11" ry="11" style="stroke:#181818;stroke-width:1.0;"/><path d="M222.2231,63.1431 Q221.6421,63.4419 221.0029,63.5913 Q220.3638,63.7407 219.6582,63.7407 Q217.1514,63.7407 215.8315,62.0889 Q214.5117,60.437 214.5117,57.3159 Q214.5117,54.1865 215.8315,52.5347 Q217.1514,50.8828 219.6582,50.8828 Q220.3638,50.8828 221.0112,51.0322 Q221.6587,51.1816 222.2231,51.4805 L222.2231,54.2031 Q221.5923,53.6221 220.9988,53.3523 Q220.4053,53.0825 219.7744,53.0825 Q218.4297,53.0825 217.7449,54.1492 Q217.0601,55.2158 217.0601,57.3159 Q217.0601,59.4077 217.7449,60.4744 Q218.4297,61.541 219.7744,61.541 Q220.4053,61.541 220.9988,61.2712 Q221.5923,61.0015 222.2231,60.4204 Z " fill="#000000"/><text fill="#000000" font-family="sans-serif" font-size="14" lengthAdjust="spacing" textLength="98" x="240.25" y="62.291">AffectationUtil</text><line style="stroke:#181818;stroke-width:0.5;" x1="22.5" x2="523.5" y1="73" y2="73"/><rect fill="none" height="6" style="stroke:#C82930;stroke-width:1.0;" width="6" x="29.5" y="83.7441"/><text fill="#000000" font-family="sans-serif" font-size="14" lengthAdjust="spacing" text-decoration="underline" textLength="148" x="41.5" y="90.5352">DEFAULT_WEIGHT: int</text><rect fill="none" height="6" style="stroke:#C82930;stroke-width:1.0;" width="6" x="29.5" y="100.2324"/><text fill="#000000" font-family="sans-serif" font-size="14" lengthAdjust="spacing" text-decoration="underline" textLength="145" x="41.5" y="107.0234">coefficientHistory: int</text><rect fill="none" height="6" style="stroke:#C82930;stroke-width:1.0;" width="6" x="29.5" y="116.7207"/><text fill="#000000" font-family="sans-serif" font-size="14" lengthAdjust="spacing" text-decoration="underline" textLength="124" x="41.5" y="123.5117">coefficientAge: int</text><rect fill="none" height="6" style="stroke:#C82930;stroke-width:1.0;" width="6" x="29.5" y="133.209"/><text fill="#000000" font-family="sans-serif" font-size="14" lengthAdjust="spacing" text-decoration="underline" textLength="147" x="41.5" y="140">coefficientGender: int</text><rect fill="none" height="6" style="stroke:#C82930;stroke-width:1.0;" width="6" x="29.5" y="149.6973"/><text fill="#000000" font-family="sans-serif" font-size="14" lengthAdjust="spacing" text-decoration="underline" textLength="153" x="41.5" y="156.4883">coefficientHobbies: int</text><rect fill="none" height="6" style="stroke:#C82930;stroke-width:1.0;" width="6" x="29.5" y="166.1855"/><text fill="#000000" font-family="sans-serif" font-size="14" lengthAdjust="spacing" text-decoration="underline" textLength="193" x="41.5" y="172.9766">coefficientAnimalAllergy: int</text><rect fill="none" height="6" style="stroke:#C82930;stroke-width:1.0;" width="6" x="29.5" y="182.6738"/><text fill="#000000" font-family="sans-serif" font-size="14" lengthAdjust="spacing" text-decoration="underline" textLength="124" x="41.5" y="189.4648">coefficientDiet: int</text><line style="stroke:#181818;stroke-width:0.5;" x1="22.5" x2="523.5" y1="196.418" y2="196.418"/><ellipse cx="32.5" cy="210.1621" fill="#84BE84" rx="3" ry="3" style="stroke:#038048;stroke-width:1.0;"/><text fill="#000000" font-family="sans-serif" font-size="14" lengthAdjust="spacing" text-decoration="underline" textLength="207" x="41.5" y="213.9531">setCoefficientHistory(int): void</text><ellipse cx="32.5" cy="226.6504" fill="#84BE84" rx="3" ry="3" style="stroke:#038048;stroke-width:1.0;"/><text fill="#000000" font-family="sans-serif" font-size="14" lengthAdjust="spacing" text-decoration="underline" textLength="180" x="41.5" y="230.4414">getCoefficientHistory(): int</text><ellipse cx="32.5" cy="243.1387" fill="#84BE84" rx="3" ry="3" style="stroke:#038048;stroke-width:1.0;"/><text fill="#000000" font-family="sans-serif" font-size="14" lengthAdjust="spacing" text-decoration="underline" textLength="186" x="41.5" y="246.9297">setCoefficientAge(int): void</text><ellipse cx="32.5" cy="259.627" fill="#84BE84" rx="3" ry="3" style="stroke:#038048;stroke-width:1.0;"/><text fill="#000000" font-family="sans-serif" font-size="14" lengthAdjust="spacing" text-decoration="underline" textLength="159" x="41.5" y="263.418">getCoefficientAge(): int</text><ellipse cx="32.5" cy="276.1152" fill="#84BE84" rx="3" ry="3" style="stroke:#038048;stroke-width:1.0;"/><text fill="#000000" font-family="sans-serif" font-size="14" lengthAdjust="spacing" text-decoration="underline" textLength="209" x="41.5" y="279.9063">setCoefficientGender(int): void</text><ellipse cx="32.5" cy="292.6035" fill="#84BE84" rx="3" ry="3" style="stroke:#038048;stroke-width:1.0;"/><text fill="#000000" font-family="sans-serif" font-size="14" lengthAdjust="spacing" text-decoration="underline" textLength="182" x="41.5" y="296.3945">getCoefficientGender(): int</text><ellipse cx="32.5" cy="309.0918" fill="#84BE84" rx="3" ry="3" style="stroke:#038048;stroke-width:1.0;"/><text fill="#000000" font-family="sans-serif" font-size="14" lengthAdjust="spacing" text-decoration="underline" textLength="215" x="41.5" y="312.8828">setCoefficientHobbies(int): void</text><ellipse cx="32.5" cy="325.5801" fill="#84BE84" rx="3" ry="3" style="stroke:#038048;stroke-width:1.0;"/><text fill="#000000" font-family="sans-serif" font-size="14" lengthAdjust="spacing" text-decoration="underline" textLength="188" x="41.5" y="329.3711">getCoefficientHobbies(): int</text><ellipse cx="32.5" cy="342.0684" fill="#84BE84" rx="3" ry="3" style="stroke:#038048;stroke-width:1.0;"/><text fill="#000000" font-family="sans-serif" font-size="14" lengthAdjust="spacing" text-decoration="underline" textLength="255" x="41.5" y="345.8594">setCoefficientAnimalAllergy(int): void</text><ellipse cx="32.5" cy="358.5566" fill="#84BE84" rx="3" ry="3" style="stroke:#038048;stroke-width:1.0;"/><text fill="#000000" font-family="sans-serif" font-size="14" lengthAdjust="spacing" text-decoration="underline" textLength="228" x="41.5" y="362.3477">getCoefficientAnimalAllergy(): int</text><ellipse cx="32.5" cy="375.0449" fill="#84BE84" rx="3" ry="3" style="stroke:#038048;stroke-width:1.0;"/><text fill="#000000" font-family="sans-serif" font-size="14" lengthAdjust="spacing" text-decoration="underline" textLength="186" x="41.5" y="378.8359">setCoefficientDiet(int): void</text><ellipse cx="32.5" cy="391.5332" fill="#84BE84" rx="3" ry="3" style="stroke:#038048;stroke-width:1.0;"/><text fill="#000000" font-family="sans-serif" font-size="14" lengthAdjust="spacing" text-decoration="underline" textLength="159" x="41.5" y="395.3242">getCoefficientDiet(): int</text><ellipse cx="32.5" cy="408.0215" fill="#84BE84" rx="3" ry="3" style="stroke:#038048;stroke-width:1.0;"/><text fill="#000000" font-family="sans-serif" font-size="14" lengthAdjust="spacing" text-decoration="underline" textLength="429" x="41.5" y="411.8125">weight(Teenager, Teenager, List&lt;Tuple&lt;Teenager&gt;&gt;): double</text><rect fill="#F24D5C" height="6" style="stroke:#C82930;stroke-width:1.0;" width="6" x="29.5" y="421.5098"/><text fill="#000000" font-family="sans-serif" font-size="14" lengthAdjust="spacing" text-decoration="underline" textLength="300" x="41.5" y="428.3008">genderWeight(Teenager, Teenager): double</text><rect fill="#F24D5C" height="6" style="stroke:#C82930;stroke-width:1.0;" width="6" x="29.5" y="437.998"/><text fill="#000000" font-family="sans-serif" font-size="14" lengthAdjust="spacing" text-decoration="underline" textLength="276" x="41.5" y="444.7891">ageWeight(Teenager, Teenager): double</text><rect fill="#F24D5C" height="6" style="stroke:#C82930;stroke-width:1.0;" width="6" x="29.5" y="454.4863"/><text fill="#000000" font-family="sans-serif" font-size="14" lengthAdjust="spacing" text-decoration="underline" textLength="477" x="41.5" y="461.2773">historyWeight(Teenager, Teenager, List&lt;Tuple&lt;Teenager&gt;&gt;): double</text></g></a><text fill="#888888" font-family="sans-serif" font-size="10" lengthAdjust="spacing" textLength="182" x="650" y="499.898">UMLDoclet 2.1.0, PlantUML 1.2022.14</text><!--SRC=[hLHTQy8m57ttLzoNWU87snvb38ew7RYn1yK7aH7ZRHg8IKbIXuZ_VMdjqBbMcsrvkMroJi_fkU4204YoHXCJYi0qYICqiAlL85zK46DWc1x0V9xLJcJNOh5mA3XPEsE9vNGFpPXmpIMhZxcn3nD4IHZgnnRqL2AjthuwkREN0pA91HxnZurkyNwnQfkXH4qiPXO3kUeHGHFX3fNyBoU1HbleP7-ULn26I6qcFhLSkEJETgvasEuFdeBfUF8-6pmFHvCkS6bBa5HX67BAKTgHCwdqjY8wO5WHEKIvGbtLX5ekEPgg9YHV4n48WPfLDTxdQ2z0cmPjxqSeTOTtVTmelYgXiK9QexgI2zHN9QLuA1mQuIkIipnqyXvwPvRJV38xxRztUj_87ghf3V8LopWNDJwGiyZMl-P32uvFPMDbfPAbmFA9vlesA_lgDRh3_9eR7Mx_xCz_b4_6l52N8se8bKhBz6NSLrIWXVlENUUs1M-2IEjsuMQ3sgI3k_49]--></g></svg>