<?xml version="1.0" encoding="UTF-8" standalone="no"?><svg xmlns="http://www.w3.org/2000/svg" xmlns:xlink="http://www.w3.org/1999/xlink" contentStyleType="text/css" height="810px" preserveAspectRatio="none" style="width:771px;height:810px;background:#FFFFFF;" version="1.1" viewBox="0 0 771 810" width="771px" zoomAndPan="magnify"><defs/><g><!--class front.controller.AffectationController--><a href="AffectationController.html" target="_top" title="AffectationController.html" xlink:actuate="onRequest" xlink:href="AffectationController.html" xlink:show="new" xlink:title="AffectationController.html" xlink:type="simple"><g id="elem_front.controller.AffectationController"><rect codeLine="5" fill="#F1F1F1" height="581.8906" id="front.controller.AffectationController" rx="2.5" ry="2.5" style="stroke:#181818;stroke-width:0.5;" width="435" x="166" y="105.26"/><ellipse cx="306.75" cy="124.3928" fill="#ADD1B2" rx="11" ry="11" style="stroke:#181818;stroke-width:1.0;"/><path d="M309.2231,130.5359 Q308.6421,130.8347 308.0029,130.9841 Q307.3638,131.1335 306.6582,131.1335 Q304.1514,131.1335 302.8315,129.4817 Q301.5117,127.8298 301.5117,124.7087 Q301.5117,121.5793 302.8315,119.9275 Q304.1514,118.2756 306.6582,118.2756 Q307.3638,118.2756 308.0112,118.425 Q308.6587,118.5745 309.2231,118.8733 L309.2231,121.5959 Q308.5923,121.0149 307.9988,120.7451 Q307.4053,120.4753 306.7744,120.4753 Q305.4297,120.4753 304.7449,121.542 Q304.0601,122.6086 304.0601,124.7087 Q304.0601,126.8005 304.7449,127.8672 Q305.4297,128.9338 306.7744,128.9338 Q307.4053,128.9338 307.9988,128.6641 Q308.5923,128.3943 309.2231,127.8132 Z " fill="#000000"/><text fill="#000000" font-family="sans-serif" font-size="14" lengthAdjust="spacing" textLength="145" x="327.25" y="123.7952">AffectationController</text><text fill="#000000" font-family="sans-serif" font-size="10" lengthAdjust="spacing" textLength="74" x="362.75" y="136.4163">front.controller</text><line style="stroke:#181818;stroke-width:0.5;" x1="167" x2="600" y1="143.5256" y2="143.5256"/><rect fill="none" height="6" style="stroke:#C82930;stroke-width:1.0;" width="6" x="174" y="154.2698"/><text fill="#000000" font-family="sans-serif" font-size="14" lengthAdjust="spacing" textLength="174" x="186" y="161.0608">currentPlatform: Platform</text><rect fill="none" height="6" style="stroke:#C82930;stroke-width:1.0;" width="6" x="174" y="170.758"/><text fill="#000000" font-family="sans-serif" font-size="14" lengthAdjust="spacing" textLength="337" x="186" y="177.5491">rowsControllers: List&lt;AffectationRowController&gt;</text><rect fill="none" height="6" style="stroke:#C82930;stroke-width:1.0;" width="6" x="174" y="187.2463"/><text fill="#000000" font-family="sans-serif" font-size="14" lengthAdjust="spacing" textLength="192" x="186" y="194.0373">currentExchange: Exchange</text><rect fill="none" height="6" style="stroke:#C82930;stroke-width:1.0;" width="6" x="174" y="203.7346"/><text fill="#000000" font-family="sans-serif" font-size="14" lengthAdjust="spacing" textLength="118" x="186" y="210.5256">lockerImg: Image</text><rect fill="none" height="6" style="stroke:#C82930;stroke-width:1.0;" width="6" x="174" y="220.2229"/><text fill="#000000" font-family="sans-serif" font-size="14" lengthAdjust="spacing" textLength="139" x="186" y="227.0139">unLockerImg: Image</text><rect fill="none" height="6" style="stroke:#C82930;stroke-width:1.0;" width="6" x="174" y="236.7112"/><text fill="#000000" font-family="sans-serif" font-size="14" lengthAdjust="spacing" textLength="325" x="186" y="243.5022">nonAffectedGuests: ObservableList&lt;Teenager&gt;</text><rect fill="none" height="6" style="stroke:#C82930;stroke-width:1.0;" width="6" x="174" y="253.1995"/><text fill="#000000" font-family="sans-serif" font-size="14" lengthAdjust="spacing" textLength="317" x="186" y="259.9905">nonAffectedHosts: ObservableList&lt;Teenager&gt;</text><rect fill="none" height="6" style="stroke:#C82930;stroke-width:1.0;" width="6" x="174" y="269.6877"/><text fill="#000000" font-family="sans-serif" font-size="14" lengthAdjust="spacing" textLength="401" x="186" y="276.4788">nonAffectedHostsListener: ListChangeListener&lt;Teenager&gt;</text><rect fill="none" height="6" style="stroke:#C82930;stroke-width:1.0;" width="6" x="174" y="286.176"/><text fill="#000000" font-family="sans-serif" font-size="14" lengthAdjust="spacing" textLength="409" x="186" y="292.967">nonAffectedGuestsListener: ListChangeListener&lt;Teenager&gt;</text><rect fill="none" height="6" style="stroke:#C82930;stroke-width:1.0;" width="6" x="174" y="302.6643"/><text fill="#000000" font-family="sans-serif" font-size="14" lengthAdjust="spacing" textLength="201" x="186" y="309.4553">nonAffectedHostsTip: Tooltip</text><rect fill="none" height="6" style="stroke:#C82930;stroke-width:1.0;" width="6" x="174" y="319.1526"/><text fill="#000000" font-family="sans-serif" font-size="14" lengthAdjust="spacing" textLength="209" x="186" y="325.9436">nonAffectedGuestsTip: Tooltip</text><polygon fill="none" points="177,334.6409,173,340.6409,181,340.6409" style="stroke:#1963A0;stroke-width:1.0;"/><text fill="#000000" font-family="sans-serif" font-size="14" lengthAdjust="spacing" textLength="184" x="186" y="342.4319">affectationContainer: VBox</text><polygon fill="none" points="177,351.1291,173,357.1291,181,357.1291" style="stroke:#1963A0;stroke-width:1.0;"/><text fill="#000000" font-family="sans-serif" font-size="14" lengthAdjust="spacing" textLength="355" x="186" y="358.9202">hostCountryChoiceBox: ChoiceBox&lt;CountryName&gt;</text><polygon fill="none" points="177,367.6174,173,373.6174,181,373.6174" style="stroke:#1963A0;stroke-width:1.0;"/><text fill="#000000" font-family="sans-serif" font-size="14" lengthAdjust="spacing" textLength="363" x="186" y="375.4084">guestCountryChoiceBox: ChoiceBox&lt;CountryName&gt;</text><polygon fill="none" points="177,384.1057,173,390.1057,181,390.1057" style="stroke:#1963A0;stroke-width:1.0;"/><text fill="#000000" font-family="sans-serif" font-size="14" lengthAdjust="spacing" textLength="232" x="186" y="391.8967">optimalAffectationsButton: Button</text><polygon fill="none" points="177,400.594,173,406.594,181,406.594" style="stroke:#1963A0;stroke-width:1.0;"/><text fill="#000000" font-family="sans-serif" font-size="14" lengthAdjust="spacing" textLength="128" x="186" y="408.385">saveButton: Button</text><polygon fill="none" points="177,417.0823,173,423.0823,181,423.0823" style="stroke:#1963A0;stroke-width:1.0;"/><text fill="#000000" font-family="sans-serif" font-size="14" lengthAdjust="spacing" textLength="197" x="186" y="424.8733">backToMainMenu: MenuItem</text><polygon fill="none" points="177,433.5705,173,439.5705,181,439.5705" style="stroke:#1963A0;stroke-width:1.0;"/><text fill="#000000" font-family="sans-serif" font-size="14" lengthAdjust="spacing" textLength="170" x="186" y="441.3616">importCsvFile: MenuItem</text><polygon fill="none" points="177,450.0588,173,456.0588,181,456.0588" style="stroke:#1963A0;stroke-width:1.0;"/><text fill="#000000" font-family="sans-serif" font-size="14" lengthAdjust="spacing" textLength="134" x="186" y="457.8498">lockCanvas: Canvas</text><polygon fill="none" points="177,466.5471,173,472.5471,181,472.5471" style="stroke:#1963A0;stroke-width:1.0;"/><text fill="#000000" font-family="sans-serif" font-size="14" lengthAdjust="spacing" textLength="155" x="186" y="474.3381">unLockCanvas: Canvas</text><polygon fill="none" points="177,483.0354,173,489.0354,181,489.0354" style="stroke:#1963A0;stroke-width:1.0;"/><text fill="#000000" font-family="sans-serif" font-size="14" lengthAdjust="spacing" textLength="210" x="186" y="490.8264">nonAffectedGuestsLabel: Label</text><polygon fill="none" points="177,499.5237,173,505.5237,181,505.5237" style="stroke:#1963A0;stroke-width:1.0;"/><text fill="#000000" font-family="sans-serif" font-size="14" lengthAdjust="spacing" textLength="202" x="186" y="507.3147">nonAffectedHostsLabel: Label</text><polygon fill="none" points="177,516.012,173,522.012,181,522.012" style="stroke:#1963A0;stroke-width:1.0;"/><text fill="#000000" font-family="sans-serif" font-size="14" lengthAdjust="spacing" textLength="262" x="186" y="523.803">nonAffectedHostsQuestionMark: Label</text><polygon fill="none" points="177,532.5002,173,538.5002,181,538.5002" style="stroke:#1963A0;stroke-width:1.0;"/><text fill="#000000" font-family="sans-serif" font-size="14" lengthAdjust="spacing" textLength="270" x="186" y="540.2913">nonAffectedGuestsQuestionMark: Label</text><polygon fill="none" points="177,548.9885,173,554.9885,181,554.9885" style="stroke:#1963A0;stroke-width:1.0;"/><text fill="#000000" font-family="sans-serif" font-size="14" lengthAdjust="spacing" textLength="164" x="186" y="556.7795">gestionCoeff: MenuItem</text><line style="stroke:#181818;stroke-width:0.5;" x1="167" x2="600" y1="563.7327" y2="563.7327"/><ellipse cx="177" cy="577.4768" fill="#84BE84" rx="3" ry="3" style="stroke:#038048;stroke-width:1.0;"/><text fill="#000000" font-family="sans-serif" font-size="14" lengthAdjust="spacing" textLength="259" x="186" y="581.2678">AffectationController(Stage, Platform)</text><ellipse cx="177" cy="593.9651" fill="#84BE84" rx="3" ry="3" style="stroke:#038048;stroke-width:1.0;"/><text fill="#000000" font-family="sans-serif" font-size="14" lengthAdjust="spacing" textLength="105" x="186" y="597.7561">initialize(): void</text><rect fill="#F24D5C" height="6" style="stroke:#C82930;stroke-width:1.0;" width="6" x="174" y="607.4534"/><text fill="#000000" font-family="sans-serif" font-size="14" lengthAdjust="spacing" textLength="144" x="186" y="614.2444">loadExchange(): void</text><rect fill="#F24D5C" height="6" style="stroke:#C82930;stroke-width:1.0;" width="6" x="174" y="623.9416"/><text fill="#000000" font-family="sans-serif" font-size="14" lengthAdjust="spacing" textLength="177" x="186" y="630.7327">updateAffectations(): void</text><rect fill="#F24D5C" height="6" style="stroke:#C82930;stroke-width:1.0;" width="6" x="174" y="640.4299"/><text fill="#000000" font-family="sans-serif" font-size="14" lengthAdjust="spacing" textLength="93" x="186" y="647.2209">lockAll(): void</text><rect fill="#F24D5C" height="6" style="stroke:#C82930;stroke-width:1.0;" width="6" x="174" y="656.9182"/><text fill="#000000" font-family="sans-serif" font-size="14" lengthAdjust="spacing" textLength="111" x="186" y="663.7092">unlockAll(): void</text><ellipse cx="177" cy="676.4065" fill="#84BE84" rx="3" ry="3" style="stroke:#038048;stroke-width:1.0;"/><text fill="#000000" font-family="sans-serif" font-size="14" lengthAdjust="spacing" textLength="372" x="186" y="680.1975">getRowsControllers(): List&lt;AffectationRowController&gt;</text></g></a><!--class front.controller.SceneController--><a href="SceneController.html" target="_top" title="SceneController.html" xlink:actuate="onRequest" xlink:href="SceneController.html" xlink:show="new" xlink:title="SceneController.html" xlink:type="simple"><g id="elem_front.controller.SceneController"><rect codeLine="40" fill="#F1F1F1" height="38.2656" id="front.controller.SceneController" rx="2.5" ry="2.5" style="stroke:#181818;stroke-width:0.5;" width="142" x="312.5" y="7"/><ellipse cx="327.5" cy="26.1328" fill="#A9DCDF" rx="11" ry="11" style="stroke:#181818;stroke-width:1.0;"/><path d="M327.3633,21.481 L326.2095,26.5527 L328.5254,26.5527 Z M325.8691,19.2397 L328.8657,19.2397 L332.2109,31.6328 L329.7622,31.6328 L328.9985,28.5698 L325.7197,28.5698 L324.9727,31.6328 L322.5239,31.6328 Z " fill="#000000"/><text fill="#000000" font-family="sans-serif" font-size="14" font-style="italic" lengthAdjust="spacing" textLength="110" x="341.5" y="25.5352">SceneController</text><text fill="#000000" font-family="sans-serif" font-size="10" font-style="italic" lengthAdjust="spacing" textLength="74" x="359.5" y="38.1563">front.controller</text></g></a><!--class front.controller.AffectationController.nonAffectedHostsListener--><a href="AffectationController.nonAffectedHostsListener.html" target="_top" title="AffectationController.nonAffectedHostsListener.html" xlink:actuate="onRequest" xlink:href="AffectationController.nonAffectedHostsListener.html" xlink:show="new" xlink:title="AffectationController.nonAffectedHostsListener.html" xlink:type="simple"><g id="elem_front.controller.AffectationController.nonAffectedHostsListener"><rect codeLine="41" fill="#F1F1F1" height="38.2656" id="front.controller.AffectationController.nonAffectedHostsListener" rx="2.5" ry="2.5" style="stroke:#181818;stroke-width:0.5;" width="357" x="7" y="747.15"/><ellipse cx="22" cy="766.2828" fill="#ADD1B2" rx="11" ry="11" style="stroke:#181818;stroke-width:1.0;"/><path d="M24.4731,772.4259 Q23.8921,772.7247 23.2529,772.8741 Q22.6138,773.0235 21.9082,773.0235 Q19.4014,773.0235 18.0815,771.3717 Q16.7617,769.7198 16.7617,766.5987 Q16.7617,763.4693 18.0815,761.8175 Q19.4014,760.1656 21.9082,760.1656 Q22.6138,760.1656 23.2612,760.315 Q23.9087,760.4645 24.4731,760.7633 L24.4731,763.4859 Q23.8423,762.9049 23.2488,762.6351 Q22.6553,762.3653 22.0244,762.3653 Q20.6797,762.3653 19.9949,763.432 Q19.3101,764.4986 19.3101,766.5987 Q19.3101,768.6905 19.9949,769.7572 Q20.6797,770.8238 22.0244,770.8238 Q22.6553,770.8238 23.2488,770.5541 Q23.8423,770.2843 24.4731,769.7032 Z " fill="#000000"/><text fill="#000000" font-family="sans-serif" font-size="14" lengthAdjust="spacing" textLength="325" x="36" y="765.6852">AffectationController.nonAffectedHostsListener</text><text fill="#000000" font-family="sans-serif" font-size="10" lengthAdjust="spacing" textLength="74" x="161.5" y="778.3063">front.controller</text></g></a><!--class front.controller.AffectationController.nonAffectedGuestsListener--><a href="AffectationController.nonAffectedGuestsListener.html" target="_top" title="AffectationController.nonAffectedGuestsListener.html" xlink:actuate="onRequest" xlink:href="AffectationController.nonAffectedGuestsListener.html" xlink:show="new" xlink:title="AffectationController.nonAffectedGuestsListener.html" xlink:type="simple"><g id="elem_front.controller.AffectationController.nonAffectedGuestsListener"><rect codeLine="42" fill="#F1F1F1" height="38.2656" id="front.controller.AffectationController.nonAffectedGuestsListener" rx="2.5" ry="2.5" style="stroke:#181818;stroke-width:0.5;" width="365" x="399" y="747.15"/><ellipse cx="414" cy="766.2828" fill="#ADD1B2" rx="11" ry="11" style="stroke:#181818;stroke-width:1.0;"/><path d="M416.4731,772.4259 Q415.8921,772.7247 415.2529,772.8741 Q414.6138,773.0235 413.9082,773.0235 Q411.4014,773.0235 410.0815,771.3717 Q408.7617,769.7198 408.7617,766.5987 Q408.7617,763.4693 410.0815,761.8175 Q411.4014,760.1656 413.9082,760.1656 Q414.6138,760.1656 415.2612,760.315 Q415.9087,760.4645 416.4731,760.7633 L416.4731,763.4859 Q415.8423,762.9049 415.2488,762.6351 Q414.6553,762.3653 414.0244,762.3653 Q412.6797,762.3653 411.9949,763.432 Q411.3101,764.4986 411.3101,766.5987 Q411.3101,768.6905 411.9949,769.7572 Q412.6797,770.8238 414.0244,770.8238 Q414.6553,770.8238 415.2488,770.5541 Q415.8423,770.2843 416.4731,769.7032 Z " fill="#000000"/><text fill="#000000" font-family="sans-serif" font-size="14" lengthAdjust="spacing" textLength="333" x="428" y="765.6852">AffectationController.nonAffectedGuestsListener</text><text fill="#000000" font-family="sans-serif" font-size="10" lengthAdjust="spacing" textLength="74" x="557.5" y="778.3063">front.controller</text></g></a><!--reverse link front.controller.SceneController to front.controller.AffectationController--><g id="link_front.controller.SceneController_front.controller.AffectationController"><path codeLine="44" d="M383.5,66.62 C383.5,77.68 383.5,90.61 383.5,104.84 " fill="none" id="front.controller.SceneController-backto-front.controller.AffectationController" style="stroke:#181818;stroke-width:1.0;"/><polygon fill="none" points="376.5,66.64,383.5,46.64,390.5,66.64,376.5,66.64" style="stroke:#181818;stroke-width:1.0;"/></g><!--reverse link front.controller.AffectationController to front.controller.AffectationController.nonAffectedHostsListener--><g id="link_front.controller.AffectationController_front.controller.AffectationController.nonAffectedHostsListener"><path codeLine="45" d="M219.93,701.27 C209.92,719.89 201.47,735.6 195.45,746.8 " fill="none" id="front.controller.AffectationController-backto-front.controller.AffectationController.nonAffectedHostsListener" style="stroke:#181818;stroke-width:1.0;"/><ellipse cx="223.7036" cy="695.2772" fill="#FFFFFF" rx="8" ry="8" style="stroke:#181818;stroke-width:1.0;"/><line style="stroke:#181818;stroke-width:1.0;" x1="219.9171" x2="227.49" y1="702.3244" y2="688.23"/><line style="stroke:#181818;stroke-width:1.0;" x1="216.6564" x2="230.7508" y1="691.4908" y2="699.0636"/></g><!--reverse link front.controller.AffectationController to front.controller.AffectationController.nonAffectedGuestsListener--><g id="link_front.controller.AffectationController_front.controller.AffectationController.nonAffectedGuestsListener"><path codeLine="46" d="M547.07,701.27 C557.08,719.89 565.53,735.6 571.55,746.8 " fill="none" id="front.controller.AffectationController-backto-front.controller.AffectationController.nonAffectedGuestsListener" style="stroke:#181818;stroke-width:1.0;"/><ellipse cx="543.2964" cy="695.2772" fill="#FFFFFF" rx="8" ry="8" style="stroke:#181818;stroke-width:1.0;"/><line style="stroke:#181818;stroke-width:1.0;" x1="547.0829" x2="539.51" y1="702.3244" y2="688.23"/><line style="stroke:#181818;stroke-width:1.0;" x1="536.2492" x2="550.3436" y1="699.0636" y2="691.4908"/></g><text fill="#888888" font-family="sans-serif" font-size="10" lengthAdjust="spacing" textLength="182" x="287.5" y="800.0836">UMLDoclet 2.1.0, PlantUML 1.2022.14</text><!--SRC=[jLPBRzf04BxtLwmYLG9HK5BrPA58YVkA17qaj9SqXs4PmuhrZhKx9e-s-UrTsn0Ri0bjKWwiDTyyTsQ_NI64SCZ2G8mk0OaNc8059YiC6NpXOJ5J4nGO9tmh8eLwuZQbCVACl3YNImtEYOE-KtSO7BqvFeaYb0oio8Has9BMQ7-O9Nvu75alxSa7w4204vl2NgqNSNbPA-_DEDPNL-9ddb3swyhKMZJyHGD7PED0hBvA5KlNhlJX0Z5GZlkL0ETqNUB7MxxVtSWPc2a6OlLLgcYISxHdyJGGPp5KaTGC6Z7VWI8yJZwawDZdz7diq2vWh37FReHel4arcuhHH_f7cqmF3TfY3yAyc9Ni4ViYqISuo1COgIGG8oBDAjaHfbRj7jPd0bIUoFTJkYbrPZvAIAdlvcqu8oNHeu5u-EmliK_-M9Hfta-pg7zlHWch67HbbDnfoamc4CLQgZfOO1Cs1ZaVqT3NCqIJ1YBxFsCiH_XUnGbP3jtYlT9Ofv3DOGXc0NuiYhN4YabiGhTR36FKlh_PKgjMJD9UMbypZtvRXc3dkvIBo3krfmKM4aPHpGvqQWcZTS5-85yza4Axr5T6iGBjoQhL3iI2rAHwgc6oEklRQ9fCWB7Qz3eFSdwYTOsnQO8wK-JpTQhATFOWgzy5GSFOiGN9Mqnz8VtnV097RzXxTjwGB7bv_skYrqHCptD_DBfll5YQ39vKsJfbFdzfw_xtgMtTObLSNjsZNU__wdRtJBBUOVrLtzdRQsEJ_d-uzNrRleVyqy0xZ8YovTjmy9QazY-krxsZtc5EEOQzLBnS-9FiFRVQVm00]--></g></svg>