<?xml version="1.0" encoding="UTF-8" standalone="no"?><svg xmlns="http://www.w3.org/2000/svg" xmlns:xlink="http://www.w3.org/1999/xlink" contentStyleType="text/css" height="237px" preserveAspectRatio="none" style="width:531px;height:237px;background:#FFFFFF;" version="1.1" viewBox="0 0 531 237" width="531px" zoomAndPan="magnify"><defs/><g><!--class front.controller.AffectationController.nonAffectedHostsListener--><a href="AffectationController.nonAffectedHostsListener.html" target="_top" title="AffectationController.nonAffectedHostsListener.html" xlink:actuate="onRequest" xlink:href="AffectationController.nonAffectedHostsListener.html" xlink:show="new" xlink:title="AffectationController.nonAffectedHostsListener.html" xlink:type="simple"><g id="elem_front.controller.AffectationController.nonAffectedHostsListener"><rect codeLine="5" fill="#F1F1F1" height="79.2422" id="front.controller.AffectationController.nonAffectedHostsListener" rx="2.5" ry="2.5" style="stroke:#181818;stroke-width:0.5;" width="362" x="116.5" y="132.76"/><ellipse cx="133.75" cy="151.8928" fill="#ADD1B2" rx="11" ry="11" style="stroke:#181818;stroke-width:1.0;"/><path d="M136.2231,158.0359 Q135.6421,158.3347 135.0029,158.4841 Q134.3638,158.6335 133.6582,158.6335 Q131.1514,158.6335 129.8315,156.9817 Q128.5117,155.3298 128.5117,152.2087 Q128.5117,149.0793 129.8315,147.4275 Q131.1514,145.7756 133.6582,145.7756 Q134.3638,145.7756 135.0112,145.925 Q135.6587,146.0745 136.2231,146.3733 L136.2231,149.0959 Q135.5923,148.5149 134.9988,148.2451 Q134.4053,147.9753 133.7744,147.9753 Q132.4297,147.9753 131.7449,149.042 Q131.0601,150.1086 131.0601,152.2087 Q131.0601,154.3005 131.7449,155.3672 Q132.4297,156.4338 133.7744,156.4338 Q134.4053,156.4338 134.9988,156.1641 Q135.5923,155.8943 136.2231,155.3132 Z " fill="#000000"/><text fill="#000000" font-family="sans-serif" font-size="14" lengthAdjust="spacing" textLength="325" x="148.25" y="151.2952">AffectationController.nonAffectedHostsListener</text><text fill="#000000" font-family="sans-serif" font-size="10" lengthAdjust="spacing" textLength="74" x="273.75" y="163.9163">front.controller</text><line style="stroke:#181818;stroke-width:0.5;" x1="117.5" x2="477.5" y1="171.0256" y2="171.0256"/><rect fill="#F24D5C" height="6" style="stroke:#C82930;stroke-width:1.0;" width="6" x="124.5" y="181.7698"/><text fill="#000000" font-family="sans-serif" font-size="14" lengthAdjust="spacing" textLength="254" x="136.5" y="188.5608">updateNonAffectedHostsLabel(): void</text><ellipse cx="127.5" cy="201.258" fill="#84BE84" rx="3" ry="3" style="stroke:#038048;stroke-width:1.0;"/><text fill="#000000" font-family="sans-serif" font-size="14" lengthAdjust="spacing" textLength="336" x="136.5" y="205.0491">onChanged(Change&lt;? extends Teenager&gt;): void</text></g></a><!--class javafx.collections.ListChangeListener--><g id="elem_javafx.collections.ListChangeListener"><rect codeLine="10" fill="#F1F1F1" height="62.7539" id="javafx.collections.ListChangeListener" rx="2.5" ry="2.5" style="stroke:#181818;stroke-width:0.5;" width="305" x="7" y="10"/><ellipse cx="60.75" cy="29.1328" fill="#B4A7E5" rx="11" ry="11" style="stroke:#181818;stroke-width:1.0;"/><path d="M57.1777,25.3979 L57.1777,23.2397 L64.5571,23.2397 L64.5571,25.3979 L62.0918,25.3979 L62.0918,33.4746 L64.5571,33.4746 L64.5571,35.6328 L57.1777,35.6328 L57.1777,33.4746 L59.6431,33.4746 L59.6431,25.3979 Z " fill="#000000"/><text fill="#000000" font-family="sans-serif" font-size="14" font-style="italic" lengthAdjust="spacing" textLength="130" x="81.25" y="28.5352">ListChangeListener</text><text fill="#000000" font-family="sans-serif" font-size="10" font-style="italic" lengthAdjust="spacing" textLength="85" x="103.75" y="41.1563">javafx.collections</text><rect fill="#FFFFFF" height="16.1328" style="stroke:#181818;stroke-width:1.0;stroke-dasharray:2.0,2.0;" width="57" x="258" y="7"/><text fill="#000000" font-family="sans-serif" font-size="12" font-style="italic" lengthAdjust="spacing" textLength="55" x="259" y="19.6016">Teenager</text><line style="stroke:#181818;stroke-width:0.5;" x1="8" x2="311" y1="48.2656" y2="48.2656"/><ellipse cx="18" cy="62.0098" fill="#84BE84" rx="3" ry="3" style="stroke:#038048;stroke-width:1.0;"/><text fill="#000000" font-family="sans-serif" font-size="14" font-style="italic" lengthAdjust="spacing" textLength="279" x="27" y="65.8008">onChanged(Change&lt;? extends E&gt;): void</text></g><!--class front.controller.AffectationController--><a href="AffectationController.html" target="_top" title="AffectationController.html" xlink:actuate="onRequest" xlink:href="AffectationController.html" xlink:show="new" xlink:title="AffectationController.html" xlink:type="simple"><g id="elem_front.controller.AffectationController"><rect codeLine="13" fill="#F1F1F1" height="38.2656" id="front.controller.AffectationController" rx="2.5" ry="2.5" style="stroke:#181818;stroke-width:0.5;" width="177" x="347" y="22.25"/><ellipse cx="362" cy="41.3828" fill="#ADD1B2" rx="11" ry="11" style="stroke:#181818;stroke-width:1.0;"/><path d="M364.4731,47.5259 Q363.8921,47.8247 363.2529,47.9741 Q362.6138,48.1235 361.9082,48.1235 Q359.4014,48.1235 358.0815,46.4717 Q356.7617,44.8198 356.7617,41.6987 Q356.7617,38.5693 358.0815,36.9175 Q359.4014,35.2656 361.9082,35.2656 Q362.6138,35.2656 363.2612,35.415 Q363.9087,35.5645 364.4731,35.8633 L364.4731,38.5859 Q363.8423,38.0049 363.2488,37.7351 Q362.6553,37.4653 362.0244,37.4653 Q360.6797,37.4653 359.9949,38.532 Q359.3101,39.5986 359.3101,41.6987 Q359.3101,43.7905 359.9949,44.8572 Q360.6797,45.9238 362.0244,45.9238 Q362.6553,45.9238 363.2488,45.6541 Q363.8423,45.3843 364.4731,44.8032 Z " fill="#000000"/><text fill="#000000" font-family="sans-serif" font-size="14" lengthAdjust="spacing" textLength="145" x="376" y="40.7852">AffectationController</text><text fill="#000000" font-family="sans-serif" font-size="10" lengthAdjust="spacing" textLength="74" x="411.5" y="53.4063">front.controller</text></g></a><!--reverse link javafx.collections.ListChangeListener to front.controller.AffectationController.nonAffectedHostsListener--><g id="link_javafx.collections.ListChangeListener_front.controller.AffectationController.nonAffectedHostsListener"><path codeLine="15" d="M207.32,87.08 C223.12,101.85 240.56,118.16 255.86,132.46 " fill="none" id="javafx.collections.ListChangeListener-backto-front.controller.AffectationController.nonAffectedHostsListener" style="stroke:#181818;stroke-width:1.0;stroke-dasharray:7.0,7.0;"/><polygon fill="none" points="203.03,92.72,193.2,73.95,212.59,82.5,203.03,92.72" style="stroke:#181818;stroke-width:1.0;"/></g><!--reverse link front.controller.AffectationController to front.controller.AffectationController.nonAffectedHostsListener--><g id="link_front.controller.AffectationController_front.controller.AffectationController.nonAffectedHostsListener"><path codeLine="16" d="M404.27,71.57 C385.01,89.58 360.07,112.89 339.14,132.46 " fill="none" id="front.controller.AffectationController-backto-front.controller.AffectationController.nonAffectedHostsListener" style="stroke:#181818;stroke-width:1.0;"/><ellipse cx="408.8897" cy="67.3272" fill="#FFFFFF" rx="8" ry="8" style="stroke:#181818;stroke-width:1.0;"/><line style="stroke:#181818;stroke-width:1.0;" x1="403.0493" x2="414.73" y1="72.7944" y2="61.86"/><line style="stroke:#181818;stroke-width:1.0;" x1="403.4224" x2="414.3569" y1="61.4869" y2="73.1676"/></g><text fill="#888888" font-family="sans-serif" font-size="10" lengthAdjust="spacing" textLength="182" x="167.5" y="227.6702">UMLDoclet 2.1.0, PlantUML 1.2022.14</text><!--SRC=[hLF1IWCn4Btx5OCWjDI6LZoLfI8gUAWYgAVQmtGpsuraaoKPIxNstyrkf9IjIalTI-0bxysyDxC009uO31RaIqpfaKfqoDQ1iOQEmZNaIX9GKV8xP8gqz4sq8CvjW6iyrUWz72TUVT2WVpwyp39A6LbPSsKDEwirEH74umN9M-lPZvHdCkHUp3UnDynSU2xIDUSOq4CJ5Fl9mtYy7q7aNEZ919Qrj-hhlfKIcUwR19oIRhK7CBTAhXztGf4SpOnaAvx91T0YA4iFJqG6P-I6cwHL354P9fU5SMm4MRKKHNu8wnNdc2r2CC5DMddpTLpRiDYMITQTRDXSujIpmvHNVvguQNI_ymRypw1_dMSSMmnpfn0W-HJYqFMgo-tOUQVRFRXSZ9kgPO7CskfulXjTsrI7N_fCz4Nl51uq6WuedCp9-I3SQdy1]--></g></svg>