<?xml version="1.0" encoding="UTF-8" standalone="no"?><svg xmlns="http://www.w3.org/2000/svg" xmlns:xlink="http://www.w3.org/1999/xlink" contentStyleType="text/css" height="237px" preserveAspectRatio="none" style="width:531px;height:237px;background:#FFFFFF;" version="1.1" viewBox="0 0 531 237" width="531px" zoomAndPan="magnify"><defs/><g><!--class front.controller.AffectationController.nonAffectedGuestsListener--><a href="AffectationController.nonAffectedGuestsListener.html" target="_top" title="AffectationController.nonAffectedGuestsListener.html" xlink:actuate="onRequest" xlink:href="AffectationController.nonAffectedGuestsListener.html" xlink:show="new" xlink:title="AffectationController.nonAffectedGuestsListener.html" xlink:type="simple"><g id="elem_front.controller.AffectationController.nonAffectedGuestsListener"><rect codeLine="5" fill="#F1F1F1" height="79.2422" id="front.controller.AffectationController.nonAffectedGuestsListener" rx="2.5" ry="2.5" style="stroke:#181818;stroke-width:0.5;" width="365" x="115" y="132.76"/><ellipse cx="130" cy="151.8928" fill="#ADD1B2" rx="11" ry="11" style="stroke:#181818;stroke-width:1.0;"/><path d="M132.4731,158.0359 Q131.8921,158.3347 131.2529,158.4841 Q130.6138,158.6335 129.9082,158.6335 Q127.4014,158.6335 126.0815,156.9817 Q124.7617,155.3298 124.7617,152.2087 Q124.7617,149.0793 126.0815,147.4275 Q127.4014,145.7756 129.9082,145.7756 Q130.6138,145.7756 131.2612,145.925 Q131.9087,146.0745 132.4731,146.3733 L132.4731,149.0959 Q131.8423,148.5149 131.2488,148.2451 Q130.6553,147.9753 130.0244,147.9753 Q128.6797,147.9753 127.9949,149.042 Q127.3101,150.1086 127.3101,152.2087 Q127.3101,154.3005 127.9949,155.3672 Q128.6797,156.4338 130.0244,156.4338 Q130.6553,156.4338 131.2488,156.1641 Q131.8423,155.8943 132.4731,155.3132 Z " fill="#000000"/><text fill="#000000" font-family="sans-serif" font-size="14" lengthAdjust="spacing" textLength="333" x="144" y="151.2952">AffectationController.nonAffectedGuestsListener</text><text fill="#000000" font-family="sans-serif" font-size="10" lengthAdjust="spacing" textLength="74" x="273.5" y="163.9163">front.controller</text><line style="stroke:#181818;stroke-width:0.5;" x1="116" x2="479" y1="171.0256" y2="171.0256"/><rect fill="#F24D5C" height="6" style="stroke:#C82930;stroke-width:1.0;" width="6" x="123" y="181.7698"/><text fill="#000000" font-family="sans-serif" font-size="14" lengthAdjust="spacing" textLength="262" x="135" y="188.5608">updateNonAffectedGuestsLabel(): void</text><ellipse cx="126" cy="201.258" fill="#84BE84" rx="3" ry="3" style="stroke:#038048;stroke-width:1.0;"/><text fill="#000000" font-family="sans-serif" font-size="14" lengthAdjust="spacing" textLength="336" x="135" y="205.0491">onChanged(Change&lt;? extends Teenager&gt;): void</text></g></a><!--class javafx.collections.ListChangeListener--><g id="elem_javafx.collections.ListChangeListener"><rect codeLine="10" fill="#F1F1F1" height="62.7539" id="javafx.collections.ListChangeListener" rx="2.5" ry="2.5" style="stroke:#181818;stroke-width:0.5;" width="305" x="7" y="10"/><ellipse cx="60.75" cy="29.1328" fill="#B4A7E5" rx="11" ry="11" style="stroke:#181818;stroke-width:1.0;"/><path d="M57.1777,25.3979 L57.1777,23.2397 L64.5571,23.2397 L64.5571,25.3979 L62.0918,25.3979 L62.0918,33.4746 L64.5571,33.4746 L64.5571,35.6328 L57.1777,35.6328 L57.1777,33.4746 L59.6431,33.4746 L59.6431,25.3979 Z " fill="#000000"/><text fill="#000000" font-family="sans-serif" font-size="14" font-style="italic" lengthAdjust="spacing" textLength="130" x="81.25" y="28.5352">ListChangeListener</text><text fill="#000000" font-family="sans-serif" font-size="10" font-style="italic" lengthAdjust="spacing" textLength="85" x="103.75" y="41.1563">javafx.collections</text><rect fill="#FFFFFF" height="16.1328" style="stroke:#181818;stroke-width:1.0;stroke-dasharray:2.0,2.0;" width="57" x="258" y="7"/><text fill="#000000" font-family="sans-serif" font-size="12" font-style="italic" lengthAdjust="spacing" textLength="55" x="259" y="19.6016">Teenager</text><line style="stroke:#181818;stroke-width:0.5;" x1="8" x2="311" y1="48.2656" y2="48.2656"/><ellipse cx="18" cy="62.0098" fill="#84BE84" rx="3" ry="3" style="stroke:#038048;stroke-width:1.0;"/><text fill="#000000" font-family="sans-serif" font-size="14" font-style="italic" lengthAdjust="spacing" textLength="279" x="27" y="65.8008">onChanged(Change&lt;? extends E&gt;): void</text></g><!--class front.controller.AffectationController--><a href="AffectationController.html" target="_top" title="AffectationController.html" xlink:actuate="onRequest" xlink:href="AffectationController.html" xlink:show="new" xlink:title="AffectationController.html" xlink:type="simple"><g id="elem_front.controller.AffectationController"><rect codeLine="13" fill="#F1F1F1" height="38.2656" id="front.controller.AffectationController" rx="2.5" ry="2.5" style="stroke:#181818;stroke-width:0.5;" width="177" x="347" y="22.25"/><ellipse cx="362" cy="41.3828" fill="#ADD1B2" rx="11" ry="11" style="stroke:#181818;stroke-width:1.0;"/><path d="M364.4731,47.5259 Q363.8921,47.8247 363.2529,47.9741 Q362.6138,48.1235 361.9082,48.1235 Q359.4014,48.1235 358.0815,46.4717 Q356.7617,44.8198 356.7617,41.6987 Q356.7617,38.5693 358.0815,36.9175 Q359.4014,35.2656 361.9082,35.2656 Q362.6138,35.2656 363.2612,35.415 Q363.9087,35.5645 364.4731,35.8633 L364.4731,38.5859 Q363.8423,38.0049 363.2488,37.7351 Q362.6553,37.4653 362.0244,37.4653 Q360.6797,37.4653 359.9949,38.532 Q359.3101,39.5986 359.3101,41.6987 Q359.3101,43.7905 359.9949,44.8572 Q360.6797,45.9238 362.0244,45.9238 Q362.6553,45.9238 363.2488,45.6541 Q363.8423,45.3843 364.4731,44.8032 Z " fill="#000000"/><text fill="#000000" font-family="sans-serif" font-size="14" lengthAdjust="spacing" textLength="145" x="376" y="40.7852">AffectationController</text><text fill="#000000" font-family="sans-serif" font-size="10" lengthAdjust="spacing" textLength="74" x="411.5" y="53.4063">front.controller</text></g></a><!--reverse link javafx.collections.ListChangeListener to front.controller.AffectationController.nonAffectedGuestsListener--><g id="link_javafx.collections.ListChangeListener_front.controller.AffectationController.nonAffectedGuestsListener"><path codeLine="15" d="M207.32,87.08 C223.12,101.85 240.56,118.16 255.86,132.46 " fill="none" id="javafx.collections.ListChangeListener-backto-front.controller.AffectationController.nonAffectedGuestsListener" style="stroke:#181818;stroke-width:1.0;stroke-dasharray:7.0,7.0;"/><polygon fill="none" points="203.03,92.72,193.2,73.95,212.59,82.5,203.03,92.72" style="stroke:#181818;stroke-width:1.0;"/></g><!--reverse link front.controller.AffectationController to front.controller.AffectationController.nonAffectedGuestsListener--><g id="link_front.controller.AffectationController_front.controller.AffectationController.nonAffectedGuestsListener"><path codeLine="16" d="M404.27,71.57 C385.01,89.58 360.07,112.89 339.14,132.46 " fill="none" id="front.controller.AffectationController-backto-front.controller.AffectationController.nonAffectedGuestsListener" style="stroke:#181818;stroke-width:1.0;"/><ellipse cx="408.8897" cy="67.3272" fill="#FFFFFF" rx="8" ry="8" style="stroke:#181818;stroke-width:1.0;"/><line style="stroke:#181818;stroke-width:1.0;" x1="403.0493" x2="414.73" y1="72.7944" y2="61.86"/><line style="stroke:#181818;stroke-width:1.0;" x1="403.4224" x2="414.3569" y1="61.4869" y2="73.1676"/></g><text fill="#888888" font-family="sans-serif" font-size="10" lengthAdjust="spacing" textLength="182" x="167.5" y="227.6702">UMLDoclet 2.1.0, PlantUML 1.2022.14</text><!--SRC=[hLF1IWCn4Btx5KD1QAaDhNWgIqLKl5GHr5FjOPhCTbUooP9CIxNstyrkf9HMfQNk9V2IzsRUcra004yC1Wlo9KfweX8TidLWhA6JS0rPhWYeAFaTqfoqyjjeGPpP0DUurEWzD1AVVr2_Tp6uIbEIZ9nRSsqDEwirEH74umMfknbvziFSCnboh-QRsHsaBhmNSarg07hO1iM1-Z0Q7SWG6HTwF8PbRQ_wEhDI8TF33WCdf9kjFinjhjQlsw5CXcPAgXdFv19e4QILXsSYWrDoWqtIAWQP6oQNXf5iX5dr54L-oEiDvvWkGZR1ZwpS-JgnNLZioYJhJZPyBd7YsQ7arPycRhUwttiB_cVMlquqpYs6kLS8a7mASVI6rVNsRBtTwHnVBmPErRf0QcrrlDmFRwpKuSS-5ptHFOD7ZOO32gTpSZueDrjV]--></g></svg>