<?xml version="1.0" encoding="UTF-8" standalone="no"?><svg xmlns="http://www.w3.org/2000/svg" xmlns:xlink="http://www.w3.org/1999/xlink" contentStyleType="text/css" height="696px" preserveAspectRatio="none" style="width:844px;height:696px;background:#FFFFFF;" version="1.1" viewBox="0 0 844 696" width="844px" zoomAndPan="magnify"><defs/><g><!--class front.controller.AffectationRowController--><a href="AffectationRowController.html" target="_top" title="AffectationRowController.html" xlink:actuate="onRequest" xlink:href="AffectationRowController.html" xlink:show="new" xlink:title="AffectationRowController.html" xlink:type="simple"><g id="elem_front.controller.AffectationRowController"><rect codeLine="5" fill="#F1F1F1" height="565.4023" id="front.controller.AffectationRowController" rx="2.5" ry="2.5" style="stroke:#181818;stroke-width:0.5;" width="828" x="9" y="105.27"/><ellipse cx="331.75" cy="124.4028" fill="#ADD1B2" rx="11" ry="11" style="stroke:#181818;stroke-width:1.0;"/><path d="M334.2231,130.5459 Q333.6421,130.8447 333.0029,130.9941 Q332.3638,131.1435 331.6582,131.1435 Q329.1514,131.1435 327.8315,129.4917 Q326.5117,127.8398 326.5117,124.7187 Q326.5117,121.5893 327.8315,119.9375 Q329.1514,118.2856 331.6582,118.2856 Q332.3638,118.2856 333.0112,118.435 Q333.6587,118.5845 334.2231,118.8833 L334.2231,121.6059 Q333.5923,121.0249 332.9988,120.7551 Q332.4053,120.4853 331.7744,120.4853 Q330.4297,120.4853 329.7449,121.552 Q329.0601,122.6186 329.0601,124.7187 Q329.0601,126.8105 329.7449,127.8772 Q330.4297,128.9438 331.7744,128.9438 Q332.4053,128.9438 332.9988,128.6741 Q333.5923,128.4043 334.2231,127.8232 Z " fill="#000000"/><text fill="#000000" font-family="sans-serif" font-size="14" lengthAdjust="spacing" textLength="174" x="352.25" y="123.8052">AffectationRowController</text><text fill="#000000" font-family="sans-serif" font-size="10" lengthAdjust="spacing" textLength="74" x="402.25" y="136.4262">front.controller</text><line style="stroke:#181818;stroke-width:0.5;" x1="10" x2="836" y1="143.5356" y2="143.5356"/><rect fill="none" height="6" style="stroke:#C82930;stroke-width:1.0;" width="6" x="17" y="154.2798"/><text fill="#000000" font-family="sans-serif" font-size="14" lengthAdjust="spacing" textLength="208" x="29" y="161.0708">currentAffectation: Affectation</text><rect fill="none" height="6" style="stroke:#C82930;stroke-width:1.0;" width="6" x="17" y="170.768"/><text fill="#000000" font-family="sans-serif" font-size="14" lengthAdjust="spacing" textLength="118" x="29" y="177.5591">lockerImg: Image</text><rect fill="none" height="6" style="stroke:#C82930;stroke-width:1.0;" width="6" x="17" y="187.2563"/><text fill="#000000" font-family="sans-serif" font-size="14" lengthAdjust="spacing" textLength="139" x="29" y="194.0473">unLockerImg: Image</text><rect fill="none" height="6" style="stroke:#C82930;stroke-width:1.0;" width="6" x="17" y="203.7446"/><text fill="#000000" font-family="sans-serif" font-size="14" lengthAdjust="spacing" textLength="186" x="29" y="210.5356">alreadyAffectedTip: Tooltip</text><rect fill="none" height="6" style="stroke:#C82930;stroke-width:1.0;" width="6" x="17" y="220.2329"/><text fill="#000000" font-family="sans-serif" font-size="14" lengthAdjust="spacing" textLength="187" x="29" y="227.0239">keepLockerVisible: boolean</text><rect fill="none" height="6" style="stroke:#C82930;stroke-width:1.0;" width="6" x="17" y="236.7212"/><text fill="#000000" font-family="sans-serif" font-size="14" lengthAdjust="spacing" textLength="147" x="29" y="243.5122">detailVisible: boolean</text><rect fill="none" height="6" style="stroke:#C82930;stroke-width:1.0;" width="6" x="17" y="253.2095"/><text fill="#000000" font-family="sans-serif" font-size="14" lengthAdjust="spacing" textLength="148" x="29" y="260.0005">lockerTooltip: Tooltip</text><rect fill="none" height="6" style="stroke:#C82930;stroke-width:1.0;" width="6" x="17" y="269.6977"/><text fill="#000000" font-family="sans-serif" font-size="14" lengthAdjust="spacing" textLength="181" x="29" y="276.4888">showDetailTooltip: Tooltip</text><rect fill="none" height="6" style="stroke:#C82930;stroke-width:1.0;" width="6" x="17" y="286.186"/><text fill="#000000" font-family="sans-serif" font-size="14" lengthAdjust="spacing" textLength="325" x="29" y="292.977">nonAffectedGuests: ObservableList&lt;Teenager&gt;</text><rect fill="none" height="6" style="stroke:#C82930;stroke-width:1.0;" width="6" x="17" y="302.6743"/><text fill="#000000" font-family="sans-serif" font-size="14" lengthAdjust="spacing" textLength="317" x="29" y="309.4653">nonAffectedHosts: ObservableList&lt;Teenager&gt;</text><rect fill="none" height="6" style="stroke:#C82930;stroke-width:1.0;" width="6" x="17" y="319.1626"/><text fill="#000000" font-family="sans-serif" font-size="14" lengthAdjust="spacing" textLength="252" x="29" y="325.9536">rootController: AffectationController</text><polygon fill="none" points="20,334.6509,16,340.6509,24,340.6509" style="stroke:#1963A0;stroke-width:1.0;"/><text fill="#000000" font-family="sans-serif" font-size="14" lengthAdjust="spacing" textLength="135" x="29" y="342.4419">hostField: TextField</text><polygon fill="none" points="20,351.1391,16,357.1391,24,357.1391" style="stroke:#1963A0;stroke-width:1.0;"/><text fill="#000000" font-family="sans-serif" font-size="14" lengthAdjust="spacing" textLength="276" x="29" y="358.9302">guestChoiceList: ChoiceBox&lt;Teenager&gt;</text><polygon fill="none" points="20,367.6274,16,373.6274,24,373.6274" style="stroke:#1963A0;stroke-width:1.0;"/><text fill="#000000" font-family="sans-serif" font-size="14" lengthAdjust="spacing" textLength="184" x="29" y="375.4184">goodCriterionsLabel: Label</text><polygon fill="none" points="20,384.1157,16,390.1157,24,390.1157" style="stroke:#1963A0;stroke-width:1.0;"/><text fill="#000000" font-family="sans-serif" font-size="14" lengthAdjust="spacing" textLength="174" x="29" y="391.9067">badCriterionsLabel: Label</text><polygon fill="none" points="20,400.604,16,406.604,24,406.604" style="stroke:#1963A0;stroke-width:1.0;"/><text fill="#000000" font-family="sans-serif" font-size="14" lengthAdjust="spacing" textLength="134" x="29" y="408.395">lockCanvas: Canvas</text><polygon fill="none" points="20,417.0923,16,423.0923,24,423.0923" style="stroke:#1963A0;stroke-width:1.0;"/><text fill="#000000" font-family="sans-serif" font-size="14" lengthAdjust="spacing" textLength="140" x="29" y="424.8833">rootContainer: VBox</text><polygon fill="none" points="20,433.5805,16,439.5805,24,439.5805" style="stroke:#1963A0;stroke-width:1.0;"/><text fill="#000000" font-family="sans-serif" font-size="14" lengthAdjust="spacing" textLength="167" x="29" y="441.3716">showDetailSVG: SVGPath</text><polygon fill="none" points="20,450.0688,16,456.0688,24,456.0688" style="stroke:#1963A0;stroke-width:1.0;"/><text fill="#000000" font-family="sans-serif" font-size="14" lengthAdjust="spacing" textLength="149" x="29" y="457.8598">hostDetailLabel: Label</text><polygon fill="none" points="20,466.5571,16,472.5571,24,472.5571" style="stroke:#1963A0;stroke-width:1.0;"/><text fill="#000000" font-family="sans-serif" font-size="14" lengthAdjust="spacing" textLength="157" x="29" y="474.3481">guestDetailLabel: Label</text><polygon fill="none" points="20,483.0454,16,489.0454,24,489.0454" style="stroke:#1963A0;stroke-width:1.0;"/><text fill="#000000" font-family="sans-serif" font-size="14" lengthAdjust="spacing" textLength="150" x="29" y="490.8364">detailContainer: HBox</text><polygon fill="none" points="20,499.5337,16,505.5337,24,505.5337" style="stroke:#1963A0;stroke-width:1.0;"/><text fill="#000000" font-family="sans-serif" font-size="14" lengthAdjust="spacing" textLength="187" x="29" y="507.3247">alreadyAffectedLabel: Label</text><polygon fill="none" points="20,516.022,16,522.022,24,522.022" style="stroke:#1963A0;stroke-width:1.0;"/><text fill="#000000" font-family="sans-serif" font-size="14" lengthAdjust="spacing" textLength="174" x="29" y="523.813">questionMarkLabel: Label</text><line style="stroke:#181818;stroke-width:0.5;" x1="10" x2="836" y1="530.7661" y2="530.7661"/><ellipse cx="20" cy="544.5102" fill="#84BE84" rx="3" ry="3" style="stroke:#038048;stroke-width:1.0;"/><text fill="#000000" font-family="sans-serif" font-size="14" lengthAdjust="spacing" textLength="802" x="29" y="548.3013">AffectationRowController(AffectationController, Affectation, ObservableList&lt;Teenager&gt;, ObservableList&lt;Teenager&gt;)</text><ellipse cx="20" cy="560.9985" fill="#84BE84" rx="3" ry="3" style="stroke:#038048;stroke-width:1.0;"/><text fill="#000000" font-family="sans-serif" font-size="14" lengthAdjust="spacing" textLength="105" x="29" y="564.7895">initialize(): void</text><rect fill="#F24D5C" height="6" style="stroke:#C82930;stroke-width:1.0;" width="6" x="17" y="574.4868"/><text fill="#000000" font-family="sans-serif" font-size="14" lengthAdjust="spacing" textLength="130" x="29" y="581.2778">setCrierions(): void</text><ellipse cx="20" cy="593.9751" fill="#84BE84" rx="3" ry="3" style="stroke:#038048;stroke-width:1.0;"/><text fill="#000000" font-family="sans-serif" font-size="14" lengthAdjust="spacing" textLength="75" x="29" y="597.7661">lock(): void</text><ellipse cx="20" cy="610.4634" fill="#84BE84" rx="3" ry="3" style="stroke:#038048;stroke-width:1.0;"/><text fill="#000000" font-family="sans-serif" font-size="14" lengthAdjust="spacing" textLength="149" x="29" y="614.2544">unlock(boolean): void</text><ellipse cx="20" cy="626.9516" fill="#84BE84" rx="3" ry="3" style="stroke:#038048;stroke-width:1.0;"/><text fill="#000000" font-family="sans-serif" font-size="14" lengthAdjust="spacing" textLength="240" x="29" y="630.7427">updateAlreadyAffectedLabel(): void</text><ellipse cx="20" cy="643.4399" fill="#84BE84" rx="3" ry="3" style="stroke:#038048;stroke-width:1.0;"/><text fill="#000000" font-family="sans-serif" font-size="14" lengthAdjust="spacing" textLength="309" x="29" y="647.2309">getGuestChoiceList(): ChoiceBox&lt;Teenager&gt;</text><ellipse cx="20" cy="659.9282" fill="#84BE84" rx="3" ry="3" style="stroke:#038048;stroke-width:1.0;"/><text fill="#000000" font-family="sans-serif" font-size="14" lengthAdjust="spacing" textLength="243" x="29" y="663.7192">getCurrentAffectation(): Affectation</text></g></a><!--class front.controller.ElementController--><a href="ElementController.html" target="_top" title="ElementController.html" xlink:actuate="onRequest" xlink:href="ElementController.html" xlink:show="new" xlink:title="ElementController.html" xlink:type="simple"><g id="elem_front.controller.ElementController"><rect codeLine="39" fill="#F1F1F1" height="38.2656" id="front.controller.ElementController" rx="2.5" ry="2.5" style="stroke:#181818;stroke-width:0.5;" width="157" x="344.5" y="7"/><ellipse cx="359.5" cy="26.1328" fill="#A9DCDF" rx="11" ry="11" style="stroke:#181818;stroke-width:1.0;"/><path d="M359.3633,21.481 L358.2095,26.5527 L360.5254,26.5527 Z M357.8691,19.2397 L360.8657,19.2397 L364.2109,31.6328 L361.7622,31.6328 L360.9985,28.5698 L357.7197,28.5698 L356.9727,31.6328 L354.5239,31.6328 Z " fill="#000000"/><text fill="#000000" font-family="sans-serif" font-size="14" font-style="italic" lengthAdjust="spacing" textLength="125" x="373.5" y="25.5352">ElementController</text><text fill="#000000" font-family="sans-serif" font-size="10" font-style="italic" lengthAdjust="spacing" textLength="74" x="399" y="38.1563">front.controller</text></g></a><!--reverse link front.controller.ElementController to front.controller.AffectationRowController--><g id="link_front.controller.ElementController_front.controller.AffectationRowController"><path codeLine="41" d="M423,66.3 C423,77.47 423,90.56 423,104.96 " fill="none" id="front.controller.ElementController-backto-front.controller.AffectationRowController" style="stroke:#181818;stroke-width:1.0;"/><polygon fill="none" points="416,66.72,423,46.72,430,66.72,416,66.72" style="stroke:#181818;stroke-width:1.0;"/></g><text fill="#888888" font-family="sans-serif" font-size="10" lengthAdjust="spacing" textLength="182" x="324" y="686.3403">UMLDoclet 2.1.0, PlantUML 1.2022.14</text><!--SRC=[fLLHJzj037xVhx2G9e5eAvZs55MLMDaAKj7GwFh2U70JjpdrSfVTkGN6nc-VanIIDWchj3xq4d_VVRRFFWS0m1E3mOHyYY7TK8eEsJemrj0xWI5M4G4bAJ_2N96E_Aur8Owjc7DxgD5xEEXxzOk2qu-3i_cSGaPMrdopzqDhs5cjoVqm6yh9OEx4sWjVeGD03xl6NfiGtDwsGRsO4trt1qzvPDcl6wwS8yEL7G5KNagYjk6It6Mo2E0omGMLoCgCMp7KZZ1wB1GfcgWqW8crcbLQafP4QI4nLLxDD0Km4mvXnNr4Z4gtuqLu6-a67pwsz-UvHZj7AlmIw6X5ddq0NsUUt1h5vrXvxa-8ZEJd1esRBkoUUvorN5Pbwy1ByolzEHRTBrcdISpqK3oMw28BTHXR5UR-0YYUFzc71jVF2skZeLDCJfpvCSv81v0l9MU6_wHanpr4iqR9jrXBx2KxL2PBRYgHb61PXvlfA03vkqQEjtCjy6R7URPl4Of6gVY_sFA_qv3D6Zyp9vBy5Rfb8-EuxOOTDfQoKwrmfxL1sf6ZqhCoYXLg6HM7Hm6ihOegJKuiXIlgLaEFivhLhIkJspSNgWwd4JATDPnQNMf1FDfkneppLZjcMuQr2PJjsfr1VuffYZFF3aEkZTNFcX9H-OzvMbEGGLgpRIPe4SmU4ltVtUx-etlpnH09sJgNQoJBzwlnkGsrV9C-z4vx9nsurcXOhF1-JSxdn_KN]--></g></svg>