<?xml version="1.0" encoding="UTF-8" standalone="no"?><svg xmlns="http://www.w3.org/2000/svg" xmlns:xlink="http://www.w3.org/1999/xlink" contentStyleType="text/css" height="350px" preserveAspectRatio="none" style="width:202px;height:350px;background:#FFFFFF;" version="1.1" viewBox="0 0 202 350" width="202px" zoomAndPan="magnify"><defs/><g><!--class front.controller.CoeffController--><a href="CoeffController.html" target="_top" title="CoeffController.html" xlink:actuate="onRequest" xlink:href="CoeffController.html" xlink:show="new" xlink:title="CoeffController.html" xlink:type="simple"><g id="elem_front.controller.CoeffController"><rect codeLine="5" fill="#F1F1F1" height="219.1484" id="front.controller.CoeffController" rx="2.5" ry="2.5" style="stroke:#181818;stroke-width:0.5;" width="188" x="7" y="105.26"/><ellipse cx="44.05" cy="124.3928" fill="#ADD1B2" rx="11" ry="11" style="stroke:#181818;stroke-width:1.0;"/><path d="M46.5231,130.5359 Q45.9421,130.8347 45.3029,130.9841 Q44.6638,131.1335 43.9582,131.1335 Q41.4514,131.1335 40.1315,129.4817 Q38.8117,127.8298 38.8117,124.7087 Q38.8117,121.5793 40.1315,119.9275 Q41.4514,118.2756 43.9582,118.2756 Q44.6638,118.2756 45.3112,118.425 Q45.9587,118.5745 46.5231,118.8733 L46.5231,121.5959 Q45.8923,121.0149 45.2988,120.7451 Q44.7053,120.4753 44.0744,120.4753 Q42.7297,120.4753 42.0449,121.542 Q41.3601,122.6086 41.3601,124.7087 Q41.3601,126.8005 42.0449,127.8672 Q42.7297,128.9338 44.0744,128.9338 Q44.7053,128.9338 45.2988,128.6641 Q45.8923,128.3943 46.5231,127.8132 Z " fill="#000000"/><text fill="#000000" font-family="sans-serif" font-size="14" lengthAdjust="spacing" textLength="107" x="62.95" y="123.7952">CoeffController</text><text fill="#000000" font-family="sans-serif" font-size="10" lengthAdjust="spacing" textLength="74" x="79.45" y="136.4163">front.controller</text><line style="stroke:#181818;stroke-width:0.5;" x1="8" x2="194" y1="143.5256" y2="143.5256"/><rect fill="none" height="6" style="stroke:#C82930;stroke-width:1.0;" width="6" x="15" y="154.2698"/><text fill="#000000" font-family="sans-serif" font-size="14" lengthAdjust="spacing" textLength="126" x="27" y="161.0608">quitbutton: Button</text><rect fill="none" height="6" style="stroke:#C82930;stroke-width:1.0;" width="6" x="15" y="170.758"/><text fill="#000000" font-family="sans-serif" font-size="14" lengthAdjust="spacing" textLength="154" x="27" y="177.5491">coeffAnimal: TextField</text><rect fill="none" height="6" style="stroke:#C82930;stroke-width:1.0;" width="6" x="15" y="187.2463"/><text fill="#000000" font-family="sans-serif" font-size="14" lengthAdjust="spacing" textLength="133" x="27" y="194.0373">coeffDiet: TextField</text><rect fill="none" height="6" style="stroke:#C82930;stroke-width:1.0;" width="6" x="15" y="203.7346"/><text fill="#000000" font-family="sans-serif" font-size="14" lengthAdjust="spacing" textLength="133" x="27" y="210.5256">coeffAge: TextField</text><rect fill="none" height="6" style="stroke:#C82930;stroke-width:1.0;" width="6" x="15" y="220.2229"/><text fill="#000000" font-family="sans-serif" font-size="14" lengthAdjust="spacing" textLength="139" x="27" y="227.0139">coeffSexe: TextField</text><rect fill="none" height="6" style="stroke:#C82930;stroke-width:1.0;" width="6" x="15" y="236.7112"/><text fill="#000000" font-family="sans-serif" font-size="14" lengthAdjust="spacing" textLength="154" x="27" y="243.5022">coeffHistory: TextField</text><rect fill="none" height="6" style="stroke:#C82930;stroke-width:1.0;" width="6" x="15" y="253.1995"/><text fill="#000000" font-family="sans-serif" font-size="14" lengthAdjust="spacing" textLength="162" x="27" y="259.9905">coeffHobbies: TextField</text><line style="stroke:#181818;stroke-width:0.5;" x1="8" x2="194" y1="266.9436" y2="266.9436"/><ellipse cx="18" cy="280.6877" fill="#84BE84" rx="3" ry="3" style="stroke:#038048;stroke-width:1.0;"/><text fill="#000000" font-family="sans-serif" font-size="14" lengthAdjust="spacing" textLength="155" x="27" y="284.4788">CoeffController(Stage)</text><ellipse cx="18" cy="297.176" fill="#84BE84" rx="3" ry="3" style="stroke:#038048;stroke-width:1.0;"/><text fill="#000000" font-family="sans-serif" font-size="14" lengthAdjust="spacing" textLength="105" x="27" y="300.967">initialize(): void</text><ellipse cx="18" cy="313.6643" fill="#84BE84" rx="3" ry="3" style="stroke:#038048;stroke-width:1.0;"/><text fill="#000000" font-family="sans-serif" font-size="14" lengthAdjust="spacing" textLength="130" x="27" y="317.4553">numberTest(): void</text></g></a><!--class front.controller.SceneController--><a href="SceneController.html" target="_top" title="SceneController.html" xlink:actuate="onRequest" xlink:href="SceneController.html" xlink:show="new" xlink:title="SceneController.html" xlink:type="simple"><g id="elem_front.controller.SceneController"><rect codeLine="18" fill="#F1F1F1" height="38.2656" id="front.controller.SceneController" rx="2.5" ry="2.5" style="stroke:#181818;stroke-width:0.5;" width="142" x="30" y="7"/><ellipse cx="45" cy="26.1328" fill="#A9DCDF" rx="11" ry="11" style="stroke:#181818;stroke-width:1.0;"/><path d="M44.8633,21.481 L43.7095,26.5527 L46.0254,26.5527 Z M43.3691,19.2397 L46.3657,19.2397 L49.7109,31.6328 L47.2622,31.6328 L46.4985,28.5698 L43.2197,28.5698 L42.4727,31.6328 L40.0239,31.6328 Z " fill="#000000"/><text fill="#000000" font-family="sans-serif" font-size="14" font-style="italic" lengthAdjust="spacing" textLength="110" x="59" y="25.5352">SceneController</text><text fill="#000000" font-family="sans-serif" font-size="10" font-style="italic" lengthAdjust="spacing" textLength="74" x="77" y="38.1563">front.controller</text></g></a><!--reverse link front.controller.SceneController to front.controller.CoeffController--><g id="link_front.controller.SceneController_front.controller.CoeffController"><path codeLine="20" d="M101,66.57 C101,78.04 101,91.17 101,104.76 " fill="none" id="front.controller.SceneController-backto-front.controller.CoeffController" style="stroke:#181818;stroke-width:1.0;"/><polygon fill="none" points="94,66.71,101,46.71,108,66.71,94,66.71" style="stroke:#181818;stroke-width:1.0;"/></g><text fill="#888888" font-family="sans-serif" font-size="10" lengthAdjust="spacing" textLength="182" x="3" y="340.0764">UMLDoclet 2.1.0, PlantUML 1.2022.14</text><!--SRC=[fP9FQm8n4CNl_HI3K51Q5oqzBI9OfVJGGc7joNh8nbaTo6PiCehsptTlLgMsQTL3SnbulpoIcJS001u5h2hHpvN63EVAAM47bYsU1GmpcY1WEPSr58HcucErH9bna3UwDifxg7KylMBQlkxs6OkYprOS6uFksUv8grkue2Rw2zL0UOZ59FB3Q1GfoKnACnx3s-RvwZHV5YJvGeHj2ZURkcUwSlSibSgaCCILt5OzHNn0A8TfRug7OOQh8_IEV9Zj-iW5pdD2_zU5YwZnUYPgYeqz9qj2oeJnrXifB9c-UUsYpD4DqSiFzh4DJULUdDBoAxrCeyL_f1VvGtgHiajl-usJzivxitboHNPxY5Q2es2kojF3_O2r2Pj-bRIJrYKy6cKbg72-HEU9RRtn2G00]--></g></svg>