<?xml version="1.0" encoding="UTF-8" standalone="no"?><svg xmlns="http://www.w3.org/2000/svg" xmlns:xlink="http://www.w3.org/1999/xlink" contentStyleType="text/css" height="350px" preserveAspectRatio="none" style="width:514px;height:350px;background:#FFFFFF;" version="1.1" viewBox="0 0 514 350" width="514px" zoomAndPan="magnify"><defs/><g><!--class front.controller.CsvImportatorController--><a href="CsvImportatorController.html" target="_top" title="CsvImportatorController.html" xlink:actuate="onRequest" xlink:href="CsvImportatorController.html" xlink:show="new" xlink:title="CsvImportatorController.html" xlink:type="simple"><g id="elem_front.controller.CsvImportatorController"><rect codeLine="5" fill="#F1F1F1" height="219.1484" id="front.controller.CsvImportatorController" rx="2.5" ry="2.5" style="stroke:#181818;stroke-width:0.5;" width="498" x="9" y="105.26"/><ellipse cx="169.75" cy="124.3928" fill="#ADD1B2" rx="11" ry="11" style="stroke:#181818;stroke-width:1.0;"/><path d="M172.2231,130.5359 Q171.6421,130.8347 171.0029,130.9841 Q170.3638,131.1335 169.6582,131.1335 Q167.1514,131.1335 165.8315,129.4817 Q164.5117,127.8298 164.5117,124.7087 Q164.5117,121.5793 165.8315,119.9275 Q167.1514,118.2756 169.6582,118.2756 Q170.3638,118.2756 171.0112,118.425 Q171.6587,118.5745 172.2231,118.8733 L172.2231,121.5959 Q171.5923,121.0149 170.9988,120.7451 Q170.4053,120.4753 169.7744,120.4753 Q168.4297,120.4753 167.7449,121.542 Q167.0601,122.6086 167.0601,124.7087 Q167.0601,126.8005 167.7449,127.8672 Q168.4297,128.9338 169.7744,128.9338 Q170.4053,128.9338 170.9988,128.6641 Q171.5923,128.3943 172.2231,127.8132 Z " fill="#000000"/><text fill="#000000" font-family="sans-serif" font-size="14" lengthAdjust="spacing" textLength="168" x="190.25" y="123.7952">CsvImportatorController</text><text fill="#000000" font-family="sans-serif" font-size="10" lengthAdjust="spacing" textLength="74" x="237.25" y="136.4163">front.controller</text><line style="stroke:#181818;stroke-width:0.5;" x1="10" x2="506" y1="143.5256" y2="143.5256"/><rect fill="none" height="6" style="stroke:#C82930;stroke-width:1.0;" width="6" x="17" y="154.2698"/><text fill="#000000" font-family="sans-serif" font-size="14" lengthAdjust="spacing" textLength="169" x="29" y="161.0608">currenPlatform: Platform</text><rect fill="none" height="6" style="stroke:#C82930;stroke-width:1.0;" width="6" x="17" y="170.758"/><text fill="#000000" font-family="sans-serif" font-size="14" lengthAdjust="spacing" textLength="176" x="29" y="177.5491">secondaryThread: Thread</text><rect fill="none" height="6" style="stroke:#C82930;stroke-width:1.0;" width="6" x="17" y="187.2463"/><text fill="#000000" font-family="sans-serif" font-size="14" lengthAdjust="spacing" textLength="138" x="29" y="194.0373">task: ImportCsvTask</text><rect fill="none" height="6" style="stroke:#C82930;stroke-width:1.0;" width="6" x="17" y="203.7346"/><text fill="#000000" font-family="sans-serif" font-size="14" lengthAdjust="spacing" textLength="206" x="29" y="210.5256">logText: SimpleStringProperty</text><polygon fill="none" points="20,219.2229,16,225.2229,24,225.2229" style="stroke:#1963A0;stroke-width:1.0;"/><text fill="#000000" font-family="sans-serif" font-size="14" lengthAdjust="spacing" textLength="70" x="29" y="227.0139">title: Label</text><polygon fill="none" points="20,235.7112,16,241.7112,24,241.7112" style="stroke:#1963A0;stroke-width:1.0;"/><text fill="#000000" font-family="sans-serif" font-size="14" lengthAdjust="spacing" textLength="125" x="29" y="243.5022">logArea: TextArea</text><polygon fill="none" points="20,252.1995,16,258.1995,24,258.1995" style="stroke:#1963A0;stroke-width:1.0;"/><text fill="#000000" font-family="sans-serif" font-size="14" lengthAdjust="spacing" textLength="129" x="29" y="259.9905">nextButton: Button</text><polygon fill="none" points="20,268.6877,16,274.6877,24,274.6877" style="stroke:#1963A0;stroke-width:1.0;"/><text fill="#000000" font-family="sans-serif" font-size="14" lengthAdjust="spacing" textLength="219" x="29" y="276.4788">showDetailCheckBox: CheckBox</text><line style="stroke:#181818;stroke-width:0.5;" x1="10" x2="506" y1="283.4319" y2="283.4319"/><ellipse cx="20" cy="297.176" fill="#84BE84" rx="3" ry="3" style="stroke:#038048;stroke-width:1.0;"/><text fill="#000000" font-family="sans-serif" font-size="14" lengthAdjust="spacing" textLength="472" x="29" y="300.967">CsvImportatorController(Stage, Collection&lt;? extends File&gt;, boolean)</text><ellipse cx="20" cy="313.6643" fill="#84BE84" rx="3" ry="3" style="stroke:#038048;stroke-width:1.0;"/><text fill="#000000" font-family="sans-serif" font-size="14" lengthAdjust="spacing" textLength="105" x="29" y="317.4553">initialize(): void</text></g></a><!--class front.controller.SceneController--><a href="SceneController.html" target="_top" title="SceneController.html" xlink:actuate="onRequest" xlink:href="SceneController.html" xlink:show="new" xlink:title="SceneController.html" xlink:type="simple"><g id="elem_front.controller.SceneController"><rect codeLine="18" fill="#F1F1F1" height="38.2656" id="front.controller.SceneController" rx="2.5" ry="2.5" style="stroke:#181818;stroke-width:0.5;" width="142" x="187" y="7"/><ellipse cx="202" cy="26.1328" fill="#A9DCDF" rx="11" ry="11" style="stroke:#181818;stroke-width:1.0;"/><path d="M201.8633,21.481 L200.7095,26.5527 L203.0254,26.5527 Z M200.3691,19.2397 L203.3657,19.2397 L206.7109,31.6328 L204.2622,31.6328 L203.4985,28.5698 L200.2197,28.5698 L199.4727,31.6328 L197.0239,31.6328 Z " fill="#000000"/><text fill="#000000" font-family="sans-serif" font-size="14" font-style="italic" lengthAdjust="spacing" textLength="110" x="216" y="25.5352">SceneController</text><text fill="#000000" font-family="sans-serif" font-size="10" font-style="italic" lengthAdjust="spacing" textLength="74" x="234" y="38.1563">front.controller</text></g></a><!--reverse link front.controller.SceneController to front.controller.CsvImportatorController--><g id="link_front.controller.SceneController_front.controller.CsvImportatorController"><path codeLine="20" d="M258,66.57 C258,78.04 258,91.17 258,104.76 " fill="none" id="front.controller.SceneController-backto-front.controller.CsvImportatorController" style="stroke:#181818;stroke-width:1.0;"/><polygon fill="none" points="251,66.71,258,46.71,265,66.71,251,66.71" style="stroke:#181818;stroke-width:1.0;"/></g><text fill="#888888" font-family="sans-serif" font-size="10" lengthAdjust="spacing" textLength="182" x="159" y="340.0764">UMLDoclet 2.1.0, PlantUML 1.2022.14</text><!--SRC=[fLDHIoD137xtLmJXeCLsqSEdeLJEYY0e25kVr8TqDkqEpawMcLZjtUblDzkjNUXHF71VClDzIRuX-HO08950m8fIZPPogZ6YS8J0WGwKXj8L15JLieAv8r-aNRGYALdXDMuzfWI7e-H-apav7K_IygggEKhJTC918djFyI5iCex7ywXePhVK8M22NJ3RqmVkx_SmMIcLVto4F-jdDT_GFiT8uTQZp3bM1ZvFNKOYbImmhgPb92mCjB5B44nF1bez5PxgjICzBwRqAWPoLzMUSeakB6uZrnHbjKrx5oUU35pZZ7o7Ql4lrL99RT6SEYeeSluimi506pikbVnoGOBEJqgoJ-VyQk3pjCqwsZEZNYwue05CcfiLns5q1Yf6eKXmwJoD1p1ZzeIXtpLpmOb3h-lhzGqisRNpUMiDWBCa4QtyuuJSKg1lE62dNZU_WsmstZxZo_BHt-7mlsssyJO5qSevSnFkRguls7hzUtvc9zdneB5J44NXnv9Yqc7s-Xy0]--></g></svg>