<?xml version="1.0" encoding="UTF-8" standalone="no"?><svg xmlns="http://www.w3.org/2000/svg" xmlns:xlink="http://www.w3.org/1999/xlink" contentStyleType="text/css" height="317px" preserveAspectRatio="none" style="width:355px;height:317px;background:#FFFFFF;" version="1.1" viewBox="0 0 355 317" width="355px" zoomAndPan="magnify"><defs/><g><!--class front.controller.FileSelectorController--><a href="FileSelectorController.html" target="_top" title="FileSelectorController.html" xlink:actuate="onRequest" xlink:href="FileSelectorController.html" xlink:show="new" xlink:title="FileSelectorController.html" xlink:type="simple"><g id="elem_front.controller.FileSelectorController"><rect codeLine="5" fill="#F1F1F1" height="186.1719" id="front.controller.FileSelectorController" rx="2.5" ry="2.5" style="stroke:#181818;stroke-width:0.5;" width="341" x="7" y="105.27"/><ellipse cx="98.75" cy="124.4028" fill="#ADD1B2" rx="11" ry="11" style="stroke:#181818;stroke-width:1.0;"/><path d="M101.2231,130.5459 Q100.6421,130.8447 100.0029,130.9941 Q99.3638,131.1435 98.6582,131.1435 Q96.1514,131.1435 94.8315,129.4917 Q93.5117,127.8398 93.5117,124.7187 Q93.5117,121.5893 94.8315,119.9375 Q96.1514,118.2856 98.6582,118.2856 Q99.3638,118.2856 100.0112,118.435 Q100.6587,118.5845 101.2231,118.8833 L101.2231,121.6059 Q100.5923,121.0249 99.9988,120.7551 Q99.4053,120.4853 98.7744,120.4853 Q97.4297,120.4853 96.7449,121.552 Q96.0601,122.6186 96.0601,124.7187 Q96.0601,126.8105 96.7449,127.8772 Q97.4297,128.9438 98.7744,128.9438 Q99.4053,128.9438 99.9988,128.6741 Q100.5923,128.4043 101.2231,127.8232 Z " fill="#000000"/><text fill="#000000" font-family="sans-serif" font-size="14" lengthAdjust="spacing" textLength="149" x="119.25" y="123.8052">FileSelectorController</text><text fill="#000000" font-family="sans-serif" font-size="10" lengthAdjust="spacing" textLength="74" x="156.75" y="136.4263">front.controller</text><line style="stroke:#181818;stroke-width:0.5;" x1="8" x2="347" y1="143.5356" y2="143.5356"/><rect fill="none" height="6" style="stroke:#C82930;stroke-width:1.0;" width="6" x="15" y="154.2798"/><text fill="#000000" font-family="sans-serif" font-size="14" lengthAdjust="spacing" textLength="247" x="27" y="161.0708">previousController: SceneController</text><rect fill="none" height="6" style="stroke:#C82930;stroke-width:1.0;" width="6" x="15" y="170.768"/><text fill="#000000" font-family="sans-serif" font-size="14" lengthAdjust="spacing" textLength="178" x="27" y="177.5591">closePopUpButton: Button</text><rect fill="none" height="6" style="stroke:#C82930;stroke-width:1.0;" width="6" x="15" y="187.2563"/><text fill="#000000" font-family="sans-serif" font-size="14" lengthAdjust="spacing" textLength="171" x="27" y="194.0473">chooseFileButton: Button</text><rect fill="none" height="6" style="stroke:#C82930;stroke-width:1.0;" width="6" x="15" y="203.7446"/><text fill="#000000" font-family="sans-serif" font-size="14" lengthAdjust="spacing" textLength="144" x="27" y="210.5356">importButton: Button</text><rect fill="none" height="6" style="stroke:#C82930;stroke-width:1.0;" width="6" x="15" y="220.2329"/><text fill="#000000" font-family="sans-serif" font-size="14" lengthAdjust="spacing" textLength="173" x="27" y="227.0239">removeFileButton: Button</text><rect fill="none" height="6" style="stroke:#C82930;stroke-width:1.0;" width="6" x="15" y="236.7212"/><text fill="#000000" font-family="sans-serif" font-size="14" lengthAdjust="spacing" textLength="192" x="27" y="243.5122">filesListView: ListView&lt;File&gt;</text><line style="stroke:#181818;stroke-width:0.5;" x1="8" x2="347" y1="250.4653" y2="250.4653"/><ellipse cx="18" cy="264.2095" fill="#84BE84" rx="3" ry="3" style="stroke:#038048;stroke-width:1.0;"/><text fill="#000000" font-family="sans-serif" font-size="14" lengthAdjust="spacing" textLength="315" x="27" y="268.0005">FileSelectorController(Stage, SceneController)</text><ellipse cx="18" cy="280.6977" fill="#84BE84" rx="3" ry="3" style="stroke:#038048;stroke-width:1.0;"/><text fill="#000000" font-family="sans-serif" font-size="14" lengthAdjust="spacing" textLength="105" x="27" y="284.4888">initialize(): void</text></g></a><!--class front.controller.SceneController--><a href="SceneController.html" target="_top" title="SceneController.html" xlink:actuate="onRequest" xlink:href="SceneController.html" xlink:show="new" xlink:title="SceneController.html" xlink:type="simple"><g id="elem_front.controller.SceneController"><rect codeLine="16" fill="#F1F1F1" height="38.2656" id="front.controller.SceneController" rx="2.5" ry="2.5" style="stroke:#181818;stroke-width:0.5;" width="142" x="106.5" y="7"/><ellipse cx="121.5" cy="26.1328" fill="#A9DCDF" rx="11" ry="11" style="stroke:#181818;stroke-width:1.0;"/><path d="M121.3633,21.481 L120.2095,26.5527 L122.5254,26.5527 Z M119.8691,19.2397 L122.8657,19.2397 L126.2109,31.6328 L123.7622,31.6328 L122.9985,28.5698 L119.7197,28.5698 L118.9727,31.6328 L116.5239,31.6328 Z " fill="#000000"/><text fill="#000000" font-family="sans-serif" font-size="14" font-style="italic" lengthAdjust="spacing" textLength="110" x="135.5" y="25.5352">SceneController</text><text fill="#000000" font-family="sans-serif" font-size="10" font-style="italic" lengthAdjust="spacing" textLength="74" x="153.5" y="38.1563">front.controller</text></g></a><!--reverse link front.controller.SceneController to front.controller.FileSelectorController--><g id="link_front.controller.SceneController_front.controller.FileSelectorController"><path codeLine="18" d="M177.5,66.39 C177.5,78.12 177.5,91.5 177.5,105.13 " fill="none" id="front.controller.SceneController-backto-front.controller.FileSelectorController" style="stroke:#181818;stroke-width:1.0;"/><polygon fill="none" points="170.5,66.68,177.5,46.68,184.5,66.68,170.5,66.68" style="stroke:#181818;stroke-width:1.0;"/></g><text fill="#888888" font-family="sans-serif" font-size="10" lengthAdjust="spacing" textLength="182" x="79.5" y="307.1098">UMLDoclet 2.1.0, PlantUML 1.2022.14</text><!--SRC=[bLDBQm8n4BxtLmn2GQakMdfQ5WzjwSc28FPYFQHnjZkGpOHatDBNVszMhLkssaSk2TzZCicN00045B2gnE2KnXawvPMm1yiMJo8D1QqGi7Jo33cXMOKsMg8K7E4DheqA0JfPe1TCHnVZ6pAng44TQrwn5S_6eB-tEy5mdFk89dfFTK05Q8F9uJAmM1mcaa9Airp2wwQdUWoSnufu7HfH2ZED5XkW4Ml30QVivkvoBS8sXUtyHL5mbDIx7rDGwTZBCTPZoTMF_ZnoOK91xWYVKlXSPRLdl9UT7Rw0xapK8_RR9-mrFh8af4nCeTjBeM9QRRZtROpg8OXNMhxbsIhuxo1R_fXW2zb5jstZLtlsDXZyzRNi7YXQYSQSkPxcjvDhrYP-WVDab0pxC3NAIaJXj48VY6stzm40]--></g></svg>