<?xml version="1.0" encoding="UTF-8" standalone="no"?><svg xmlns="http://www.w3.org/2000/svg" xmlns:xlink="http://www.w3.org/1999/xlink" contentStyleType="text/css" height="231px" preserveAspectRatio="none" style="width:1789px;height:231px;" version="1.1" viewBox="0 0 1789 231" width="1789px" zoomAndPan="magnify"><defs/><g><!--class graphes--><a href="graphes/package-summary.html" target="_top" title="graphes/package-summary.html" xlink:actuate="onRequest" xlink:href="graphes/package-summary.html" xlink:show="new" xlink:title="graphes/package-summary.html" xlink:type="simple"><g id="elem_graphes"><rect codeLine="24" fill="#F1F1F1" height="26.4883" id="graphes" rx="2.5" ry="2.5" style="stroke:#181818;stroke-width:0.5;" width="62" x="7" y="93.48"/><text fill="#000000" font-family="sans-serif" font-size="14" lengthAdjust="spacing" textLength="56" x="10" y="112.0152">graphes</text></g></a><!--class voyages--><a href="voyages/package-summary.html" target="_top" title="voyages/package-summary.html" xlink:actuate="onRequest" xlink:href="voyages/package-summary.html" xlink:show="new" xlink:title="voyages/package-summary.html" xlink:type="simple"><g id="elem_voyages"><rect codeLine="26" fill="#F1F1F1" height="26.4883" id="voyages" rx="2.5" ry="2.5" style="stroke:#181818;stroke-width:0.5;" width="61" x="71.5" y="179.97"/><text fill="#000000" font-family="sans-serif" font-size="14" lengthAdjust="spacing" textLength="55" x="74.5" y="198.5052">voyages</text></g></a><!--class back.task--><a href="back/task/package-summary.html" target="_top" title="back/task/package-summary.html" xlink:actuate="onRequest" xlink:href="back/task/package-summary.html" xlink:show="new" xlink:title="back/task/package-summary.html" xlink:type="simple"><g id="elem_back.task"><rect codeLine="28" fill="#F1F1F1" height="26.4883" id="back.task" rx="2.5" ry="2.5" style="stroke:#181818;stroke-width:0.5;" width="70" x="175" y="93.48"/><text fill="#000000" font-family="sans-serif" font-size="14" lengthAdjust="spacing" textLength="64" x="178" y="112.0152">back.task</text></g></a><!--class javafx.concurrent--><g id="elem_javafx.concurrent"><rect fill="#F1F1F1" height="26.4883" id="javafx.concurrent" rx="2.5" ry="2.5" style="stroke:#181818;stroke-width:0.5;" width="126" x="167" y="179.97"/><text fill="#000000" font-family="sans-serif" font-size="14" lengthAdjust="spacing" textLength="120" x="170" y="198.5052">javafx.concurrent</text></g><!--class front.controller--><a href="front/controller/package-summary.html" target="_top" title="front/controller/package-summary.html" xlink:actuate="onRequest" xlink:href="front/controller/package-summary.html" xlink:show="new" xlink:title="front/controller/package-summary.html" xlink:type="simple"><g id="elem_front.controller"><rect codeLine="30" fill="#F1F1F1" height="26.4883" id="front.controller" rx="2.5" ry="2.5" style="stroke:#181818;stroke-width:0.5;" width="111" x="888.5" y="7"/><text fill="#000000" font-family="sans-serif" font-size="14" lengthAdjust="spacing" textLength="105" x="891.5" y="25.5352">front.controller</text></g></a><!--class javafx.scene.image--><g id="elem_javafx.scene.image"><rect fill="#F1F1F1" height="26.4883" id="javafx.scene.image" rx="2.5" ry="2.5" style="stroke:#181818;stroke-width:0.5;" width="136" x="280" y="93.48"/><text fill="#000000" font-family="sans-serif" font-size="14" lengthAdjust="spacing" textLength="130" x="283" y="112.0152">javafx.scene.image</text></g><!--class javafx.scene.control--><g id="elem_javafx.scene.control"><rect fill="#F1F1F1" height="26.4883" id="javafx.scene.control" rx="2.5" ry="2.5" style="stroke:#181818;stroke-width:0.5;" width="143" x="451.5" y="93.48"/><text fill="#000000" font-family="sans-serif" font-size="14" lengthAdjust="spacing" textLength="137" x="454.5" y="112.0152">javafx.scene.control</text></g><!--class javafx.collections--><g id="elem_javafx.collections"><rect fill="#F1F1F1" height="26.4883" id="javafx.collections" rx="2.5" ry="2.5" style="stroke:#181818;stroke-width:0.5;" width="124" x="629" y="93.48"/><text fill="#000000" font-family="sans-serif" font-size="14" lengthAdjust="spacing" textLength="118" x="632" y="112.0152">javafx.collections</text></g><!--class javafx.scene.canvas--><g id="elem_javafx.scene.canvas"><rect fill="#F1F1F1" height="26.4883" id="javafx.scene.canvas" rx="2.5" ry="2.5" style="stroke:#181818;stroke-width:0.5;" width="140" x="788" y="93.48"/><text fill="#000000" font-family="sans-serif" font-size="14" lengthAdjust="spacing" textLength="134" x="791" y="112.0152">javafx.scene.canvas</text></g><!--class javafx.scene.layout--><g id="elem_javafx.scene.layout"><rect fill="#F1F1F1" height="26.4883" id="javafx.scene.layout" rx="2.5" ry="2.5" style="stroke:#181818;stroke-width:0.5;" width="136" x="963" y="93.48"/><text fill="#000000" font-family="sans-serif" font-size="14" lengthAdjust="spacing" textLength="130" x="966" y="112.0152">javafx.scene.layout</text></g><!--class javafx.scene.shape--><g id="elem_javafx.scene.shape"><rect fill="#F1F1F1" height="26.4883" id="javafx.scene.shape" rx="2.5" ry="2.5" style="stroke:#181818;stroke-width:0.5;" width="135" x="1134.5" y="93.48"/><text fill="#000000" font-family="sans-serif" font-size="14" lengthAdjust="spacing" textLength="129" x="1137.5" y="112.0152">javafx.scene.shape</text></g><!--class javafx.stage--><g id="elem_javafx.stage"><rect fill="#F1F1F1" height="26.4883" id="javafx.stage" rx="2.5" ry="2.5" style="stroke:#181818;stroke-width:0.5;" width="88" x="1304" y="93.48"/><text fill="#000000" font-family="sans-serif" font-size="14" lengthAdjust="spacing" textLength="82" x="1307" y="112.0152">javafx.stage</text></g><!--class javafx.scene--><g id="elem_javafx.scene"><rect fill="#F1F1F1" height="26.4883" id="javafx.scene" rx="2.5" ry="2.5" style="stroke:#181818;stroke-width:0.5;" width="90" x="1427" y="93.48"/><text fill="#000000" font-family="sans-serif" font-size="14" lengthAdjust="spacing" textLength="84" x="1430" y="112.0152">javafx.scene</text></g><!--class front--><a href="front/package-summary.html" target="_top" title="front/package-summary.html" xlink:actuate="onRequest" xlink:href="front/package-summary.html" xlink:show="new" xlink:title="front/package-summary.html" xlink:type="simple"><g id="elem_front"><rect codeLine="32" fill="#F1F1F1" height="26.4883" id="front" rx="2.5" ry="2.5" style="stroke:#181818;stroke-width:0.5;" width="40" x="1552" y="93.48"/><text fill="#000000" font-family="sans-serif" font-size="14" lengthAdjust="spacing" textLength="34" x="1555" y="112.0152">front</text></g></a><!--class javafx.beans.property--><g id="elem_javafx.beans.property"><rect fill="#F1F1F1" height="26.4883" id="javafx.beans.property" rx="2.5" ry="2.5" style="stroke:#181818;stroke-width:0.5;" width="155" x="1627.5" y="93.48"/><text fill="#000000" font-family="sans-serif" font-size="14" lengthAdjust="spacing" textLength="149" x="1630.5" y="112.0152">javafx.beans.property</text></g><!--link graphes to voyages--><g id="link_graphes_voyages"><path codeLine="7" d="M47.44,120.19 C58.5,134.8 76.88,159.05 89.21,175.33 " fill="none" id="graphes-to-voyages" style="stroke:#181818;stroke-width:1.0;"/><polygon fill="#181818" points="92.52,178.7,90.2816,169.1089,89.504,174.712,83.9009,173.9345,92.52,178.7" style="stroke:#181818;stroke-width:1.0;"/></g><!--link back.task to javafx.concurrent--><g id="link_back.task_javafx.concurrent"><path codeLine="8" d="M212.95,120.19 C216.32,134.42 221.86,157.82 225.7,174.06 " fill="none" id="back.task-to-javafx.concurrent" style="stroke:#181818;stroke-width:1.0;"/><polygon fill="#181818" points="227.04,178.7,228.8518,169.0192,225.8845,173.8354,221.0683,170.8681,227.04,178.7" style="stroke:#181818;stroke-width:1.0;"/></g><!--link back.task to voyages--><g id="link_back.task_voyages"><path codeLine="9" d="M194.06,120.19 C175.08,135.04 143.33,159.89 122.52,176.16 " fill="none" id="back.task-to-voyages" style="stroke:#181818;stroke-width:1.0;"/><polygon fill="#181818" points="119,179.7,128.5528,177.3032,122.9375,176.6185,123.6223,171.0032,119,179.7" style="stroke:#181818;stroke-width:1.0;"/></g><!--link front.controller to voyages--><g id="link_front.controller_voyages"><path codeLine="10" d="M888.03,23.4 C718.6,30.37 219.05,54.07 158,93.48 C129.15,112.11 113.63,151.11 106.66,174.13 " fill="none" id="front.controller-to-voyages" style="stroke:#181818;stroke-width:1.0;"/><polygon fill="#181818" points="105.07,178.62,111.4093,171.0826,106.4568,173.8162,103.7232,168.8637,105.07,178.62" style="stroke:#181818;stroke-width:1.0;"/></g><!--link front.controller to javafx.scene.image--><g id="link_front.controller_javafx.scene.image"><path codeLine="11" d="M888.15,29.14 C794.33,42.41 599.12,70.03 434,93.48 C430,94.05 425.89,94.64 421.74,95.23 " fill="none" id="front.controller-to-javafx.scene.image" style="stroke:#181818;stroke-width:1.0;"/><polygon fill="#181818" points="417.07,96.03,426.542,98.7285,422.0206,95.3289,425.4202,90.8075,417.07,96.03" style="stroke:#181818;stroke-width:1.0;"/></g><!--link front.controller to javafx.scene.control--><g id="link_front.controller_javafx.scene.control"><path codeLine="12" d="M888.09,32.46 C811.75,47.78 674.95,75.23 592.22,91.84 " fill="none" id="front.controller-to-javafx.scene.control" style="stroke:#181818;stroke-width:1.0;"/><polygon fill="#181818" points="587.36,93.01,596.9721,95.1565,592.2618,92.0239,595.3944,87.3136,587.36,93.01" style="stroke:#181818;stroke-width:1.0;"/></g><!--link front.controller to javafx.collections--><g id="link_front.controller_javafx.collections"><path codeLine="13" d="M905.85,33.98 C859.86,49.34 782.75,75.09 734.49,91.2 " fill="none" id="front.controller-to-javafx.collections" style="stroke:#181818;stroke-width:1.0;"/><polygon fill="#181818" points="730.05,93.02,739.8539,93.9598,734.792,91.4346,737.3172,86.3726,730.05,93.02" style="stroke:#181818;stroke-width:1.0;"/></g><!--link front.controller to javafx.scene.canvas--><g id="link_front.controller_javafx.scene.canvas"><path codeLine="14" d="M931.31,33.71 C916.32,48.43 891.33,72.98 874.76,89.26 " fill="none" id="front.controller-to-javafx.scene.canvas" style="stroke:#181818;stroke-width:1.0;"/><polygon fill="#181818" points="871.74,92.21,880.9607,88.749,875.304,88.7032,875.3498,83.0465,871.74,92.21" style="stroke:#181818;stroke-width:1.0;"/></g><!--link front.controller to javafx.scene.layout--><g id="link_front.controller_javafx.scene.layout"><path codeLine="15" d="M956.84,33.71 C972,48.43 997.28,72.98 1014.04,89.26 " fill="none" id="front.controller-to-javafx.scene.layout" style="stroke:#181818;stroke-width:1.0;"/><polygon fill="#181818" points="1017.11,92.21,1013.4448,83.0685,1013.5248,88.7248,1007.8685,88.8048,1017.11,92.21" style="stroke:#181818;stroke-width:1.0;"/></g><!--link front.controller to javafx.scene.shape--><g id="link_front.controller_javafx.scene.shape"><path codeLine="16" d="M982.9,33.98 C1029.8,49.34 1108.44,75.09 1157.65,91.2 " fill="none" id="front.controller-to-javafx.scene.shape" style="stroke:#181818;stroke-width:1.0;"/><polygon fill="#181818" points="1162.2,93.02,1154.873,86.4386,1157.4439,91.4775,1152.405,94.0483,1162.2,93.02" style="stroke:#181818;stroke-width:1.0;"/></g><!--link front.controller to javafx.stage--><g id="link_front.controller_javafx.stage"><path codeLine="17" d="M999.75,32.9 C1078.76,49.42 1222.1,79.4 1297.9,95.25 " fill="none" id="front.controller-to-javafx.stage" style="stroke:#181818;stroke-width:1.0;"/><polygon fill="#181818" points="1302.68,96.46,1294.6776,90.7187,1297.7838,95.4465,1293.056,98.5527,1302.68,96.46" style="stroke:#181818;stroke-width:1.0;"/></g><!--link front.controller to javafx.scene--><g id="link_front.controller_javafx.scene"><path codeLine="18" d="M999.94,29.23 C1087.39,41.89 1261.73,67.74 1409,93.48 C1412.83,94.15 1416.8,94.87 1420.78,95.6 " fill="none" id="front.controller-to-javafx.scene" style="stroke:#181818;stroke-width:1.0;"/><polygon fill="#181818" points="1425.61,96.69,1417.4935,91.1113,1420.6943,95.7755,1416.0302,98.9763,1425.61,96.69" style="stroke:#181818;stroke-width:1.0;"/></g><!--link front.controller to front--><g id="link_front.controller_front"><path codeLine="19" d="M999.62,24.36 C1105.12,31.08 1341.09,50 1535,93.48 C1538.64,94.3 1542.43,95.33 1546.13,96.45 " fill="none" id="front.controller-to-front" style="stroke:#181818;stroke-width:1.0;"/><polygon fill="#181818" points="1550.85,98.26,1543.4816,91.7249,1546.0842,96.7475,1541.0617,99.3501,1550.85,98.26" style="stroke:#181818;stroke-width:1.0;"/></g><!--link front.controller to back.task--><g id="link_front.controller_back.task"><path codeLine="20" d="M888.43,24.75 C771.74,32.64 492.95,54.22 262,93.48 C258.46,94.09 254.8,94.79 251.14,95.54 " fill="none" id="front.controller-to-back.task" style="stroke:#181818;stroke-width:1.0;"/><polygon fill="#181818" points="246.4,96.76,256.0367,98.7931,251.2898,95.7163,254.3667,90.9694,246.4,96.76" style="stroke:#181818;stroke-width:1.0;"/></g><!--link front.controller to javafx.beans.property--><g id="link_front.controller_javafx.beans.property"><path codeLine="21" d="M999.74,26.9 C1114.18,38.62 1383.92,66.66 1610,93.48 C1613.77,93.93 1617.63,94.4 1621.52,94.87 " fill="none" id="front.controller-to-javafx.beans.property" style="stroke:#181818;stroke-width:1.0;"/><polygon fill="#181818" points="1626.25,95.58,1617.8102,90.5036,1621.288,94.9651,1616.8264,98.4428,1626.25,95.58" style="stroke:#181818;stroke-width:1.0;"/></g><text fill="#888888" font-family="sans-serif" font-size="10" lengthAdjust="spacing" textLength="182" x="796.75" y="221.1263">UMLDoclet 2.1.0, PlantUML 1.2022.14</text><!--SRC=[bPF1JiCm38RlF8M5X029TS03SE88qYJ4QTh1ozmrD8cZnAse4EzEqbRRc3IjEpNv_VsEupe00B7MpcD02sjKzJPmupQA3GUGW2wc43cvWaoIW4DBILFqGTaa2NFig8zNUaEWT53cO4_MImUb9hE9nwebgJZ9lRuDw2kAC9kzGCiTRcdWSrM5OApxo1UsM7uNYfrgmgwo_yoXkmpi9ECIs1WAqu3nbAZ8KQ5jWYUoO-mihRAYHBERMeL2r-9Ks637ZKo4OuL-mlraSXTEKxruEhpxZMVFMLCQpS87zXIa6mRe5XR9dwe4erqzj4ePZ16knzcwXkLoNCxzmCvYOos6hgZ4cjKAVdhRxw5vd9Pi7fSNc7TNolQycUVD1GcEkv3pzDfyhrsQRf_ZZ75mfbUMkbyovy_d-zihfnSky5my5OyFi33e9AbmqrA8QQBlxly0]--></g></svg>