<?xml version="1.0" encoding="UTF-8" standalone="no"?><svg xmlns="http://www.w3.org/2000/svg" xmlns:xlink="http://www.w3.org/1999/xlink" contentStyleType="text/css" height="616px" preserveAspectRatio="none" style="width:497px;height:616px;background:#FFFFFF;" version="1.1" viewBox="0 0 497 616" width="497px" zoomAndPan="magnify"><defs/><g><!--cluster back.task--><g id="cluster_back.task"><path d="M8.5,409.3 L76.5,409.3 A3.75,3.75 0 0 1 79,411.8 L86,431.7883 L487.5,431.7883 A2.5,2.5 0 0 1 490,434.2883 L490,588.24 A2.5,2.5 0 0 1 487.5,590.74 L8.5,590.74 A2.5,2.5 0 0 1 6,588.24 L6,411.8 A2.5,2.5 0 0 1 8.5,409.3 " fill="none" style="stroke:#000000;stroke-width:1.5;"/><line style="stroke:#000000;stroke-width:1.5;" x1="6" x2="86" y1="431.7883" y2="431.7883"/><text fill="#000000" font-family="sans-serif" font-size="14" font-weight="bold" lengthAdjust="spacing" textLength="67" x="10" y="424.8352">back.task</text></g><!--cluster javafx.concurrent--><g id="cluster_javafx.concurrent"><path d="M38.5,6 L161.5,6 A3.75,3.75 0 0 1 164,8.5 L171,28.4883 L457.5,28.4883 A2.5,2.5 0 0 1 460,30.9883 L460,382.8 A2.5,2.5 0 0 1 457.5,385.3 L38.5,385.3 A2.5,2.5 0 0 1 36,382.8 L36,8.5 A2.5,2.5 0 0 1 38.5,6 " fill="none" style="stroke:#000000;stroke-width:1.5;"/><line style="stroke:#000000;stroke-width:1.5;" x1="36" x2="171" y1="28.4883" y2="28.4883"/><text fill="#000000" font-family="sans-serif" font-size="14" font-weight="bold" lengthAdjust="spacing" textLength="122" x="40" y="21.5352">javafx.concurrent</text></g><!--class back.task.ImportCsvTask--><a href="ImportCsvTask.html" target="_top" title="ImportCsvTask.html" xlink:actuate="onRequest" xlink:href="ImportCsvTask.html" xlink:show="new" xlink:title="ImportCsvTask.html" xlink:type="simple"><g id="elem_back.task.ImportCsvTask"><rect codeLine="3" fill="#F1F1F1" height="130.4414" id="back.task.ImportCsvTask" rx="2.5" ry="2.5" style="stroke:#181818;stroke-width:0.5;" width="452" x="22" y="444.3"/><ellipse cx="192.75" cy="460.3" fill="#ADD1B2" rx="11" ry="11" style="stroke:#181818;stroke-width:1.0;"/><path d="M195.2231,466.4431 Q194.6421,466.7419 194.0029,466.8913 Q193.3638,467.0407 192.6582,467.0407 Q190.1514,467.0407 188.8315,465.3889 Q187.5117,463.737 187.5117,460.6159 Q187.5117,457.4865 188.8315,455.8347 Q190.1514,454.1828 192.6582,454.1828 Q193.3638,454.1828 194.0112,454.3322 Q194.6587,454.4816 195.2231,454.7805 L195.2231,457.5031 Q194.5923,456.9221 193.9988,456.6523 Q193.4053,456.3825 192.7744,456.3825 Q191.4297,456.3825 190.7449,457.4492 Q190.0601,458.5158 190.0601,460.6159 Q190.0601,462.7077 190.7449,463.7744 Q191.4297,464.841 192.7744,464.841 Q193.4053,464.841 193.9988,464.5712 Q194.5923,464.3015 195.2231,463.7204 Z " fill="#000000"/><text fill="#000000" font-family="sans-serif" font-size="14" lengthAdjust="spacing" textLength="102" x="213.25" y="465.591">ImportCsvTask</text><line style="stroke:#181818;stroke-width:0.5;" x1="23" x2="473" y1="476.3" y2="476.3"/><rect fill="none" height="6" style="stroke:#C82930;stroke-width:1.0;" width="6" x="30" y="487.0441"/><text fill="#000000" font-family="sans-serif" font-size="14" lengthAdjust="spacing" textLength="174" x="42" y="493.8352">currentPlatform: Platform</text><rect fill="none" height="6" style="stroke:#C82930;stroke-width:1.0;" width="6" x="30" y="503.5324"/><text fill="#000000" font-family="sans-serif" font-size="14" lengthAdjust="spacing" textLength="169" x="42" y="510.3234">filesToImport: List&lt;File&gt;</text><rect fill="none" height="6" style="stroke:#C82930;stroke-width:1.0;" width="6" x="30" y="520.0207"/><text fill="#000000" font-family="sans-serif" font-size="14" lengthAdjust="spacing" textLength="174" x="42" y="526.8117">generateLogFile: boolean</text><line style="stroke:#181818;stroke-width:0.5;" x1="23" x2="473" y1="533.7648" y2="533.7648"/><ellipse cx="33" cy="547.509" fill="#84BE84" rx="3" ry="3" style="stroke:#038048;stroke-width:1.0;"/><text fill="#000000" font-family="sans-serif" font-size="14" lengthAdjust="spacing" textLength="426" x="42" y="551.3">ImportCsvTask(Platform, Collection&lt;? extends File&gt;, boolean)</text><polygon fill="#FFFF44" points="33,558.9973,37,562.9973,33,566.9973,29,562.9973" style="stroke:#B38D22;stroke-width:1.0;"/><text fill="#000000" font-family="sans-serif" font-size="14" lengthAdjust="spacing" textLength="72" x="42" y="567.7883">call(): Void</text></g></a><!--class javafx.concurrent.Task--><g id="elem_javafx.concurrent.Task"><rect codeLine="15" fill="#F1F1F1" height="328.3008" id="javafx.concurrent.Task" rx="2.5" ry="2.5" style="stroke:#181818;stroke-width:0.5;" width="391" x="52.5" y="41"/><ellipse cx="221.75" cy="57" fill="#A9DCDF" rx="11" ry="11" style="stroke:#181818;stroke-width:1.0;"/><path d="M221.6133,52.3481 L220.4595,57.4199 L222.7754,57.4199 Z M220.1191,50.1069 L223.1157,50.1069 L226.4609,62.5 L224.0122,62.5 L223.2485,59.437 L219.9697,59.437 L219.2227,62.5 L216.7739,62.5 Z " fill="#000000"/><text fill="#000000" font-family="sans-serif" font-size="14" font-style="italic" lengthAdjust="spacing" textLength="32" x="242.25" y="62.291">Task</text><rect fill="#FFFFFF" height="16.1328" style="stroke:#181818;stroke-width:1.0;stroke-dasharray:2.0,2.0;" width="10" x="436.5" y="38"/><text fill="#000000" font-family="sans-serif" font-size="12" font-style="italic" lengthAdjust="spacing" textLength="8" x="437.5" y="50.6016">V</text><line style="stroke:#181818;stroke-width:0.5;" x1="53.5" x2="442.5" y1="73" y2="73"/><rect fill="none" height="6" style="stroke:#C82930;stroke-width:1.0;" width="6" x="60.5" y="83.7441"/><text fill="#000000" font-family="sans-serif" font-size="14" lengthAdjust="spacing" textLength="365" x="72.5" y="90.5352">progressUpdate: AtomicReference&lt;ProgressUpdate&gt;</text><rect fill="none" height="6" style="stroke:#C82930;stroke-width:1.0;" width="6" x="60.5" y="100.2324"/><text fill="#000000" font-family="sans-serif" font-size="14" lengthAdjust="spacing" textLength="296" x="72.5" y="107.0234">messageUpdate: AtomicReference&lt;String&gt;</text><rect fill="none" height="6" style="stroke:#C82930;stroke-width:1.0;" width="6" x="60.5" y="116.7207"/><text fill="#000000" font-family="sans-serif" font-size="14" lengthAdjust="spacing" textLength="262" x="72.5" y="123.5117">titleUpdate: AtomicReference&lt;String&gt;</text><rect fill="none" height="6" style="stroke:#C82930;stroke-width:1.0;" width="6" x="60.5" y="133.209"/><text fill="#000000" font-family="sans-serif" font-size="14" lengthAdjust="spacing" textLength="240" x="72.5" y="140">valueUpdate: AtomicReference&lt;V&gt;</text><rect fill="none" height="6" style="stroke:#C82930;stroke-width:1.0;" width="6" x="60.5" y="149.6973"/><text fill="#000000" font-family="sans-serif" font-size="14" lengthAdjust="spacing" textLength="112" x="72.5" y="156.4883">started: boolean</text><rect fill="none" height="6" style="stroke:#C82930;stroke-width:1.0;" width="6" x="60.5" y="166.1855"/><text fill="#000000" font-family="sans-serif" font-size="14" lengthAdjust="spacing" textLength="199" x="72.5" y="172.9766">state: ObjectProperty&lt;State&gt;</text><rect fill="none" height="6" style="stroke:#C82930;stroke-width:1.0;" width="6" x="60.5" y="182.6738"/><text fill="#000000" font-family="sans-serif" font-size="14" lengthAdjust="spacing" textLength="177" x="72.5" y="189.4648">value: ObjectProperty&lt;V&gt;</text><rect fill="none" height="6" style="stroke:#C82930;stroke-width:1.0;" width="6" x="60.5" y="199.1621"/><text fill="#000000" font-family="sans-serif" font-size="14" lengthAdjust="spacing" textLength="273" x="72.5" y="205.9531">exception: ObjectProperty&lt;Throwable&gt;</text><rect fill="none" height="6" style="stroke:#C82930;stroke-width:1.0;" width="6" x="60.5" y="215.6504"/><text fill="#000000" font-family="sans-serif" font-size="14" lengthAdjust="spacing" textLength="185" x="72.5" y="222.4414">workDone: DoubleProperty</text><rect fill="none" height="6" style="stroke:#C82930;stroke-width:1.0;" width="6" x="60.5" y="232.1387"/><text fill="#000000" font-family="sans-serif" font-size="14" lengthAdjust="spacing" textLength="181" x="72.5" y="238.9297">totalWork: DoubleProperty</text><rect fill="none" height="6" style="stroke:#C82930;stroke-width:1.0;" width="6" x="60.5" y="248.627"/><text fill="#000000" font-family="sans-serif" font-size="14" lengthAdjust="spacing" textLength="176" x="72.5" y="255.418">progress: DoubleProperty</text><rect fill="none" height="6" style="stroke:#C82930;stroke-width:1.0;" width="6" x="60.5" y="265.1152"/><text fill="#000000" font-family="sans-serif" font-size="14" lengthAdjust="spacing" textLength="176" x="72.5" y="271.9063">running: BooleanProperty</text><rect fill="none" height="6" style="stroke:#C82930;stroke-width:1.0;" width="6" x="60.5" y="281.6035"/><text fill="#000000" font-family="sans-serif" font-size="14" lengthAdjust="spacing" textLength="167" x="72.5" y="288.3945">message: StringProperty</text><rect fill="none" height="6" style="stroke:#C82930;stroke-width:1.0;" width="6" x="60.5" y="298.0918"/><text fill="#000000" font-family="sans-serif" font-size="14" lengthAdjust="spacing" textLength="133" x="72.5" y="304.8828">title: StringProperty</text><rect fill="none" height="6" style="stroke:#C82930;stroke-width:1.0;" width="6" x="60.5" y="314.5801"/><text fill="#000000" font-family="sans-serif" font-size="14" lengthAdjust="spacing" text-decoration="underline" textLength="214" x="72.5" y="321.3711">modifyThreadPerm: Permission</text><rect fill="none" height="6" style="stroke:#C82930;stroke-width:1.0;" width="6" x="60.5" y="331.0684"/><text fill="#000000" font-family="sans-serif" font-size="14" lengthAdjust="spacing" textLength="172" x="72.5" y="337.8594">eventHelper: EventHelper</text><line style="stroke:#181818;stroke-width:0.5;" x1="53.5" x2="442.5" y1="344.8125" y2="344.8125"/><polygon fill="#FFFF44" points="63.5,353.5566,67.5,357.5566,63.5,361.5566,59.5,357.5566" style="stroke:#B38D22;stroke-width:1.0;"/><text fill="#000000" font-family="sans-serif" font-size="14" font-style="italic" lengthAdjust="spacing" textLength="50" x="72.5" y="362.3477">call(): V</text></g><!--reverse link javafx.concurrent.Task to back.task.ImportCsvTask--><g id="link_javafx.concurrent.Task_back.task.ImportCsvTask"><path codeLine="11" d="M248,390.51 C248,409.46 248,427.68 248,443.9 " fill="none" id="javafx.concurrent.Task-backto-back.task.ImportCsvTask" style="stroke:#181818;stroke-width:1.0;"/><polygon fill="none" points="241,390.72,248,370.72,255,390.72,241,390.72" style="stroke:#181818;stroke-width:1.0;"/></g><text fill="#888888" font-family="sans-serif" font-size="10" lengthAdjust="spacing" textLength="182" x="150.5" y="606.408">UMLDoclet 2.1.0, PlantUML 1.2022.14</text><!--SRC=[bLHDRzim3BtdLn0O1YHOOcmx6a67hTcm0HaMR6bsA7gGPTfL8uk6nBWfklptIKcy-AC9C1riItnyf1v90m0OKQ0hXKH8X5n7BDmQdWS3E2wfXNFmhIZ9yhMhbi5yUzlQH_TSwBixxmMDDP4RQz7mGWlEo1Onr5zjMAOqkYKT66EOAyVJB_xigWtBqQ0LZ7FAWpM6X4YZC2tKcrPUmphW6Av9QvIio4m_06uPJUfW7sLS4urQJA-aq7euYc55AlrdsPrqUH2LoBQH97EyPxINPlfdCcchDMWudhJkkJVK4ubZAoGVjGyaqzLLLzxIKcxHkPiozRB4y96fKF8dPkZf94uNBNj7JP-64pcUy_t5LfcyuyEAzVzvL49lpdgiEc37mZAcBnSsM0F9Z-J1bz5VhKJBJpvg_shxe3raDnfk9PQX7th8vRsbHv7q6l2Hx7f6nbFFQEFDjKD796AXVtlePLXTlCiekp76gnh3fuCaBwEEjOpXK8CpUONYNOGy1ucLt7b2IbNsv7L0aIvmFxd-gPppSdLKh7pdVaNjsMBuVDgqYUj-tZMcgZ5IZVcGdW4jP4JXTVDzFYEfaU5zz2vwEmu_4CF-55vNQ4Csmz5V]--></g></svg>