<?xml version="1.0" encoding="UTF-8" standalone="no"?><svg xmlns="http://www.w3.org/2000/svg" xmlns:xlink="http://www.w3.org/1999/xlink" contentStyleType="text/css" height="482px" preserveAspectRatio="none" style="width:338px;height:482px;background:#FFFFFF;" version="1.1" viewBox="0 0 338 482" width="338px" zoomAndPan="magnify"><defs/><g><!--class voyages.Affectation--><a href="Affectation.html" target="_top" title="Affectation.html" xlink:actuate="onRequest" xlink:href="Affectation.html" xlink:show="new" xlink:title="Affectation.html" xlink:type="simple"><g id="elem_voyages.Affectation"><rect codeLine="5" fill="#F1F1F1" height="351.0547" id="voyages.Affectation" rx="2.5" ry="2.5" style="stroke:#181818;stroke-width:0.5;" width="324" x="7" y="105.27"/><ellipse cx="127.25" cy="124.4028" fill="#ADD1B2" rx="11" ry="11" style="stroke:#181818;stroke-width:1.0;"/><path d="M129.7231,130.5459 Q129.1421,130.8447 128.5029,130.9941 Q127.8638,131.1435 127.1582,131.1435 Q124.6514,131.1435 123.3315,129.4917 Q122.0117,127.8398 122.0117,124.7187 Q122.0117,121.5893 123.3315,119.9375 Q124.6514,118.2856 127.1582,118.2856 Q127.8638,118.2856 128.5112,118.435 Q129.1587,118.5845 129.7231,118.8833 L129.7231,121.6059 Q129.0923,121.0249 128.4988,120.7551 Q127.9053,120.4853 127.2744,120.4853 Q125.9297,120.4853 125.2449,121.552 Q124.5601,122.6186 124.5601,124.7187 Q124.5601,126.8105 125.2449,127.8772 Q125.9297,128.9438 127.2744,128.9438 Q127.9053,128.9438 128.4988,128.6741 Q129.0923,128.4043 129.7231,127.8232 Z " fill="#000000"/><text fill="#000000" font-family="sans-serif" font-size="14" lengthAdjust="spacing" textLength="75" x="147.75" y="123.8052">Affectation</text><text fill="#000000" font-family="sans-serif" font-size="10" lengthAdjust="spacing" textLength="39" x="165.75" y="136.4262">voyages</text><line style="stroke:#181818;stroke-width:0.5;" x1="8" x2="330" y1="143.5356" y2="143.5356"/><rect fill="none" height="6" style="stroke:#C82930;stroke-width:1.0;" width="6" x="15" y="154.2798"/><text fill="#000000" font-family="sans-serif" font-size="14" lengthAdjust="spacing" textLength="180" x="27" y="161.0708">couple: Tuple&lt;Teenager&gt;</text><rect fill="none" height="6" style="stroke:#C82930;stroke-width:1.0;" width="6" x="15" y="170.768"/><text fill="#000000" font-family="sans-serif" font-size="14" lengthAdjust="spacing" textLength="109" x="27" y="177.5591">locked: boolean</text><rect fill="none" height="6" style="stroke:#C82930;stroke-width:1.0;" width="6" x="15" y="187.2563"/><text fill="#000000" font-family="sans-serif" font-size="14" lengthAdjust="spacing" textLength="225" x="27" y="194.0473">goodRequirements: List&lt;String&gt;</text><rect fill="none" height="6" style="stroke:#C82930;stroke-width:1.0;" width="6" x="15" y="203.7446"/><text fill="#000000" font-family="sans-serif" font-size="14" lengthAdjust="spacing" textLength="215" x="27" y="210.5356">badRequirements: List&lt;String&gt;</text><rect fill="none" height="6" style="stroke:#C82930;stroke-width:1.0;" width="6" x="15" y="220.2329"/><text fill="#000000" font-family="sans-serif" font-size="14" lengthAdjust="spacing" textLength="192" x="27" y="227.0239">currentExchange: Exchange</text><line style="stroke:#181818;stroke-width:0.5;" x1="8" x2="330" y1="233.977" y2="233.977"/><ellipse cx="18" cy="247.7212" fill="#84BE84" rx="3" ry="3" style="stroke:#038048;stroke-width:1.0;"/><text fill="#000000" font-family="sans-serif" font-size="14" lengthAdjust="spacing" textLength="298" x="27" y="251.5122">Affectation(Teenager, Teenager, Exchange)</text><ellipse cx="18" cy="264.2095" fill="#84BE84" rx="3" ry="3" style="stroke:#038048;stroke-width:1.0;"/><text fill="#000000" font-family="sans-serif" font-size="14" lengthAdjust="spacing" textLength="136" x="27" y="268.0005">getHost(): Teenager</text><ellipse cx="18" cy="280.6977" fill="#84BE84" rx="3" ry="3" style="stroke:#038048;stroke-width:1.0;"/><text fill="#000000" font-family="sans-serif" font-size="14" lengthAdjust="spacing" textLength="144" x="27" y="284.4888">getGuest(): Teenager</text><ellipse cx="18" cy="297.186" fill="#84BE84" rx="3" ry="3" style="stroke:#038048;stroke-width:1.0;"/><text fill="#000000" font-family="sans-serif" font-size="14" lengthAdjust="spacing" textLength="170" x="27" y="300.977">get(Teenager): Teenager</text><ellipse cx="18" cy="313.6743" fill="#84BE84" rx="3" ry="3" style="stroke:#038048;stroke-width:1.0;"/><text fill="#000000" font-family="sans-serif" font-size="14" lengthAdjust="spacing" textLength="171" x="27" y="317.4653">setGuest(Teenager): void</text><ellipse cx="18" cy="330.1626" fill="#84BE84" rx="3" ry="3" style="stroke:#038048;stroke-width:1.0;"/><text fill="#000000" font-family="sans-serif" font-size="14" lengthAdjust="spacing" textLength="171" x="27" y="333.9536">setLocked(boolean): void</text><ellipse cx="18" cy="346.6509" fill="#84BE84" rx="3" ry="3" style="stroke:#038048;stroke-width:1.0;"/><text fill="#000000" font-family="sans-serif" font-size="14" lengthAdjust="spacing" textLength="133" x="27" y="350.4419">isLocked(): boolean</text><ellipse cx="18" cy="363.1391" fill="#84BE84" rx="3" ry="3" style="stroke:#038048;stroke-width:1.0;"/><text fill="#000000" font-family="sans-serif" font-size="14" lengthAdjust="spacing" textLength="258" x="27" y="366.9302">getGoodRequirements(): List&lt;String&gt;</text><ellipse cx="18" cy="379.6274" fill="#84BE84" rx="3" ry="3" style="stroke:#038048;stroke-width:1.0;"/><text fill="#000000" font-family="sans-serif" font-size="14" lengthAdjust="spacing" textLength="246" x="27" y="383.4184">getBadRequirements(): List&lt;String&gt;</text><ellipse cx="18" cy="396.1157" fill="#84BE84" rx="3" ry="3" style="stroke:#038048;stroke-width:1.0;"/><text fill="#000000" font-family="sans-serif" font-size="14" lengthAdjust="spacing" textLength="227" x="27" y="399.9067">getCurrentExchange(): Exchange</text><rect fill="#F24D5C" height="6" style="stroke:#C82930;stroke-width:1.0;" width="6" x="15" y="409.604"/><text fill="#000000" font-family="sans-serif" font-size="14" lengthAdjust="spacing" textLength="162" x="27" y="416.395">setRequirements(): void</text><ellipse cx="18" cy="429.0923" fill="#84BE84" rx="3" ry="3" style="stroke:#038048;stroke-width:1.0;"/><text fill="#000000" font-family="sans-serif" font-size="14" lengthAdjust="spacing" textLength="151" x="27" y="432.8833">getHostDetail(): String</text><ellipse cx="18" cy="445.5805" fill="#84BE84" rx="3" ry="3" style="stroke:#038048;stroke-width:1.0;"/><text fill="#000000" font-family="sans-serif" font-size="14" lengthAdjust="spacing" textLength="159" x="27" y="449.3716">getGuestDetail(): String</text></g></a><!--class java.io.Serializable--><g id="elem_java.io.Serializable"><rect codeLine="26" fill="#F1F1F1" height="38.2656" id="java.io.Serializable" rx="2.5" ry="2.5" style="stroke:#181818;stroke-width:0.5;" width="111" x="113.5" y="7"/><ellipse cx="128.5" cy="26.1328" fill="#B4A7E5" rx="11" ry="11" style="stroke:#181818;stroke-width:1.0;"/><path d="M124.9277,22.3979 L124.9277,20.2397 L132.3071,20.2397 L132.3071,22.3979 L129.8418,22.3979 L129.8418,30.4746 L132.3071,30.4746 L132.3071,32.6328 L124.9277,32.6328 L124.9277,30.4746 L127.3931,30.4746 L127.3931,22.3979 Z " fill="#000000"/><text fill="#000000" font-family="sans-serif" font-size="14" font-style="italic" lengthAdjust="spacing" textLength="79" x="142.5" y="25.5352">Serializable</text><text fill="#000000" font-family="sans-serif" font-size="10" font-style="italic" lengthAdjust="spacing" textLength="32" x="166" y="38.1563">java.io</text></g><!--reverse link java.io.Serializable to voyages.Affectation--><g id="link_java.io.Serializable_voyages.Affectation"><path codeLine="28" d="M169,66.61 C169,77.86 169,90.91 169,104.88 " fill="none" id="java.io.Serializable-backto-voyages.Affectation" style="stroke:#181818;stroke-width:1.0;stroke-dasharray:7.0,7.0;"/><polygon fill="none" points="162,66.71,169,46.71,176,66.71,162,66.71" style="stroke:#181818;stroke-width:1.0;"/></g><text fill="#888888" font-family="sans-serif" font-size="10" lengthAdjust="spacing" textLength="182" x="71" y="471.9927">UMLDoclet 2.1.0, PlantUML 1.2022.14</text><!--SRC=[ZPF1Ji9048RlFiN4n0GYD60yDOH4nUW14oDuGWv3EoshsntSNOYWlhkxfK21nj1Bf_D_EplzCmC0OCY2mepC32CQq0mrMjQWMD6Pas4gOWBAPdO9YI0PcyDiHdRABftd8ud6m7d7Y1M5xUlkJP9GPD4ALc-goBQw2rvYIkOSq40H1oKIHgFILp2rcHoFuJk_m3_DYESpII4C_Qip95AkXExk0CdH1yKXJ9WbeTe9ANFyGfzpeIaZPKq8VM5iPs2rK6cfm0HFmgAvraw__ugcg5BNqIRQ8fUbFwbjEct0BjgSgE-Ef6GVsTXQFTnoU-B3dFvHjxTK0cPpl4GjMCHxH3-thrQuTqG8Km3rOuVp_WvCzbobVnw-nTFPktsxFNjaUDFrVrXml_t2tXvP5DBBwwkEBQuaVjU3BfGbdRYLAGtxWBH0ALOuaLIQzdTSO20ud_OY3ihekc2L0fsV8AZQa6BPo3S12RD_lJxrUnn9jyvNGJjeDU1Peh8k2nSBqiRFN_qF]--></g></svg>