<?xml version="1.0" encoding="UTF-8" standalone="no"?><svg xmlns="http://www.w3.org/2000/svg" xmlns:xlink="http://www.w3.org/1999/xlink" contentStyleType="text/css" height="302px" preserveAspectRatio="none" style="width:752px;height:302px;background:#FFFFFF;" version="1.1" viewBox="0 0 752 302" width="752px" zoomAndPan="magnify"><defs/><g><!--class voyages.CsvFileImportator--><a href="CsvFileImportator.html" target="_top" title="CsvFileImportator.html" xlink:actuate="onRequest" xlink:href="CsvFileImportator.html" xlink:show="new" xlink:title="CsvFileImportator.html" xlink:type="simple"><g id="elem_voyages.CsvFileImportator"><rect codeLine="5" fill="#F1F1F1" height="268.6133" id="voyages.CsvFileImportator" rx="2.5" ry="2.5" style="stroke:#181818;stroke-width:0.5;" width="731" x="7" y="7"/><ellipse cx="307.25" cy="26.1328" fill="#ADD1B2" rx="11" ry="11" style="stroke:#181818;stroke-width:1.0;"/><path d="M309.7231,32.2759 Q309.1421,32.5747 308.5029,32.7241 Q307.8638,32.8735 307.1582,32.8735 Q304.6514,32.8735 303.3315,31.2217 Q302.0117,29.5698 302.0117,26.4487 Q302.0117,23.3193 303.3315,21.6675 Q304.6514,20.0156 307.1582,20.0156 Q307.8638,20.0156 308.5112,20.165 Q309.1587,20.3145 309.7231,20.6133 L309.7231,23.3359 Q309.0923,22.7549 308.4988,22.4851 Q307.9053,22.2153 307.2744,22.2153 Q305.9297,22.2153 305.2449,23.282 Q304.5601,24.3486 304.5601,26.4487 Q304.5601,28.5405 305.2449,29.6072 Q305.9297,30.6738 307.2744,30.6738 Q307.9053,30.6738 308.4988,30.4041 Q309.0923,30.1343 309.7231,29.5532 Z " fill="#000000"/><text fill="#000000" font-family="sans-serif" font-size="14" lengthAdjust="spacing" textLength="122" x="327.75" y="25.5352">CsvFileImportator</text><text fill="#000000" font-family="sans-serif" font-size="10" lengthAdjust="spacing" textLength="39" x="369.25" y="38.1563">voyages</text><line style="stroke:#181818;stroke-width:0.5;" x1="8" x2="737" y1="45.2656" y2="45.2656"/><ellipse cx="18" cy="59.0098" fill="none" rx="3" ry="3" style="stroke:#038048;stroke-width:1.0;"/><text fill="#000000" font-family="sans-serif" font-size="14" lengthAdjust="spacing" text-decoration="underline" textLength="216" x="27" y="62.8008">TOTAL_COLUMN_EXPECTED: int</text><ellipse cx="18" cy="75.498" fill="none" rx="3" ry="3" style="stroke:#038048;stroke-width:1.0;"/><text fill="#000000" font-family="sans-serif" font-size="14" lengthAdjust="spacing" text-decoration="underline" textLength="165" x="27" y="79.2891">CSV_SEPARATOR: String</text><ellipse cx="18" cy="91.9863" fill="none" rx="3" ry="3" style="stroke:#038048;stroke-width:1.0;"/><text fill="#000000" font-family="sans-serif" font-size="14" lengthAdjust="spacing" text-decoration="underline" textLength="269" x="27" y="95.7773">TEENAGERS_COLUMNS_NAMES: String[]</text><ellipse cx="18" cy="108.4746" fill="none" rx="3" ry="3" style="stroke:#038048;stroke-width:1.0;"/><text fill="#000000" font-family="sans-serif" font-size="14" lengthAdjust="spacing" text-decoration="underline" textLength="271" x="27" y="112.2656">CRITERIONS_COLUMNS_NAMES: String[]</text><rect fill="none" height="6" style="stroke:#C82930;stroke-width:1.0;" width="6" x="15" y="121.9629"/><text fill="#000000" font-family="sans-serif" font-size="14" lengthAdjust="spacing" textLength="150" x="27" y="128.7539">logText: StringBuilder</text><rect fill="none" height="6" style="stroke:#C82930;stroke-width:1.0;" width="6" x="15" y="138.4512"/><text fill="#000000" font-family="sans-serif" font-size="14" lengthAdjust="spacing" textLength="198" x="27" y="145.2422">logFileContent: StringBuilder</text><line style="stroke:#181818;stroke-width:0.5;" x1="8" x2="737" y1="152.1953" y2="152.1953"/><rect fill="#F24D5C" height="6" style="stroke:#C82930;stroke-width:1.0;" width="6" x="15" y="162.9395"/><text fill="#000000" font-family="sans-serif" font-size="14" lengthAdjust="spacing" textLength="159" x="27" y="169.7305">getRowHeader(): String</text><rect fill="#F24D5C" height="6" style="stroke:#C82930;stroke-width:1.0;" width="6" x="15" y="179.4277"/><text fill="#000000" font-family="sans-serif" font-size="14" lengthAdjust="spacing" text-decoration="underline" textLength="192" x="27" y="186.2188">splitCsvRow(String): String[]</text><rect fill="#F24D5C" height="6" style="stroke:#C82930;stroke-width:1.0;" width="6" x="15" y="195.916"/><text fill="#000000" font-family="sans-serif" font-size="14" lengthAdjust="spacing" textLength="351" x="27" y="202.707">getCsvStructure(String): HashMap&lt;String, Integer&gt;</text><rect fill="#F24D5C" height="6" style="stroke:#C82930;stroke-width:1.0;" width="6" x="15" y="212.4043"/><text fill="#000000" font-family="sans-serif" font-size="14" lengthAdjust="spacing" textLength="705" x="27" y="219.1953">createTeenagerFromCsvRow(String, Map&lt;String, Integer&gt;, Map&lt;Integer, List&lt;String&gt;&gt;, int): Teenager</text><rect fill="#F24D5C" height="6" style="stroke:#C82930;stroke-width:1.0;" width="6" x="15" y="228.8926"/><text fill="#000000" font-family="sans-serif" font-size="14" lengthAdjust="spacing" textLength="259" x="27" y="235.6836">generateLogFile(String, String): String</text><ellipse cx="18" cy="248.3809" fill="#84BE84" rx="3" ry="3" style="stroke:#038048;stroke-width:1.0;"/><text fill="#000000" font-family="sans-serif" font-size="14" lengthAdjust="spacing" textLength="546" x="27" y="252.1719">importFromCsv(File, boolean): HashMap&lt;CountryName, ArrayList&lt;Teenager&gt;&gt;</text><ellipse cx="18" cy="264.8691" fill="#84BE84" rx="3" ry="3" style="stroke:#038048;stroke-width:1.0;"/><text fill="#000000" font-family="sans-serif" font-size="14" lengthAdjust="spacing" textLength="161" x="27" y="268.6602">getLogContent(): String</text></g></a><text fill="#888888" font-family="sans-serif" font-size="10" lengthAdjust="spacing" textLength="182" x="281" y="292.2813">UMLDoclet 2.1.0, PlantUML 1.2022.14</text><!--SRC=[XLDTI-D057tVNt4H5beQYye-5GbauwY5D2r95A6MCfjUqu79J9YPThUA_zsRDhLQ8vkN9EUSU-x7p0K0iEX0yH9jnNDCiUA6Esr0QOK_Y8QbM21WMRaDF0cK2tkCbkYMck0jdajkBPnSMl6CW_DVVcZNrqBYiAoqSRNnesguCt-jDxn0UmBSGlFT_wA7wVGBrb-wKivcyB9DMJylbWYHlq8l6sT1D0_7qTqedhE72GipTZK0eLoBE4plvocR14cGZPC1fCu8LRIPCXO7Don96-Dq7WSZbkuZfhCsxsIOiMGuZlyVT2fraU4_jwT-huHSeFd4rnC8jNAelfSLw1BzznOvePtkz_sSsaeAHsCbTMSdwhQLHNua8doLkvN1W_IMs-M8LvSxm8CXrLMWyG-XkK7kC4DKTApcskZoKpeFsi9tQFFdGIIiQpG-SNI4b7fl-R5AXNHdCTeDwJt3KMFl0JsnlKXDJPqwneC_MalawaDleLufPpOnhOO7WJ5yiwrddzy_DDkZEL7ovdIE1l_Qx0KnQE19w_frDugkT2vfyoxwv_qp3oQIAqSe_5oZiKAhJlSD]--></g></svg>