<?xml version="1.0" encoding="UTF-8" standalone="no"?><svg xmlns="http://www.w3.org/2000/svg" xmlns:xlink="http://www.w3.org/1999/xlink" contentStyleType="text/css" height="366px" preserveAspectRatio="none" style="width:379px;height:366px;background:#FFFFFF;" version="1.1" viewBox="0 0 379 366" width="379px" zoomAndPan="magnify"><defs/><g><!--class voyages.Exchange--><a href="Exchange.html" target="_top" title="Exchange.html" xlink:actuate="onRequest" xlink:href="Exchange.html" xlink:show="new" xlink:title="Exchange.html" xlink:type="simple"><g id="elem_voyages.Exchange"><rect codeLine="5" fill="#F1F1F1" height="235.6367" id="voyages.Exchange" rx="2.5" ry="2.5" style="stroke:#181818;stroke-width:0.5;" width="365" x="7" y="105.26"/><ellipse cx="151.75" cy="124.3928" fill="#ADD1B2" rx="11" ry="11" style="stroke:#181818;stroke-width:1.0;"/><path d="M154.2231,130.5359 Q153.6421,130.8347 153.0029,130.9841 Q152.3638,131.1335 151.6582,131.1335 Q149.1514,131.1335 147.8315,129.4817 Q146.5117,127.8298 146.5117,124.7087 Q146.5117,121.5793 147.8315,119.9275 Q149.1514,118.2756 151.6582,118.2756 Q152.3638,118.2756 153.0112,118.425 Q153.6587,118.5745 154.2231,118.8733 L154.2231,121.5959 Q153.5923,121.0149 152.9988,120.7451 Q152.4053,120.4753 151.7744,120.4753 Q150.4297,120.4753 149.7449,121.542 Q149.0601,122.6086 149.0601,124.7087 Q149.0601,126.8005 149.7449,127.8672 Q150.4297,128.9338 151.7744,128.9338 Q152.4053,128.9338 152.9988,128.6641 Q153.5923,128.3943 154.2231,127.8132 Z " fill="#000000"/><text fill="#000000" font-family="sans-serif" font-size="14" lengthAdjust="spacing" textLength="67" x="172.25" y="123.7952">Exchange</text><text fill="#000000" font-family="sans-serif" font-size="10" lengthAdjust="spacing" textLength="39" x="186.25" y="136.4163">voyages</text><line style="stroke:#181818;stroke-width:0.5;" x1="8" x2="371" y1="143.5256" y2="143.5256"/><rect fill="none" height="6" style="stroke:#C82930;stroke-width:1.0;" width="6" x="15" y="154.2698"/><text fill="#000000" font-family="sans-serif" font-size="14" lengthAdjust="spacing" textLength="227" x="27" y="161.0608">countries: Tuple&lt;CountryName&gt;</text><rect fill="none" height="6" style="stroke:#C82930;stroke-width:1.0;" width="6" x="15" y="170.758"/><text fill="#000000" font-family="sans-serif" font-size="14" lengthAdjust="spacing" textLength="181" x="27" y="177.5491">couples: List&lt;Affectation&gt;</text><rect fill="none" height="6" style="stroke:#C82930;stroke-width:1.0;" width="6" x="15" y="187.2463"/><text fill="#000000" font-family="sans-serif" font-size="14" lengthAdjust="spacing" textLength="174" x="27" y="194.0373">currentPlatform: Platform</text><line style="stroke:#181818;stroke-width:0.5;" x1="8" x2="371" y1="200.9905" y2="200.9905"/><ellipse cx="18" cy="214.7346" fill="#84BE84" rx="3" ry="3" style="stroke:#038048;stroke-width:1.0;"/><text fill="#000000" font-family="sans-serif" font-size="14" lengthAdjust="spacing" textLength="339" x="27" y="218.5256">Exchange(CountryName, CountryName, Platform)</text><ellipse cx="18" cy="231.2229" fill="#84BE84" rx="3" ry="3" style="stroke:#038048;stroke-width:1.0;"/><text fill="#000000" font-family="sans-serif" font-size="14" lengthAdjust="spacing" textLength="196" x="27" y="235.0139">setOptimalAffectation(): void</text><ellipse cx="18" cy="247.7112" fill="#84BE84" rx="3" ry="3" style="stroke:#038048;stroke-width:1.0;"/><text fill="#000000" font-family="sans-serif" font-size="14" lengthAdjust="spacing" textLength="242" x="27" y="251.5022">getAffectations(): List&lt;Affectation&gt;</text><ellipse cx="18" cy="264.1995" fill="#84BE84" rx="3" ry="3" style="stroke:#038048;stroke-width:1.0;"/><text fill="#000000" font-family="sans-serif" font-size="14" lengthAdjust="spacing" textLength="220" x="27" y="267.9905">getHostCountry(): CountryName</text><ellipse cx="18" cy="280.6877" fill="#84BE84" rx="3" ry="3" style="stroke:#038048;stroke-width:1.0;"/><text fill="#000000" font-family="sans-serif" font-size="14" lengthAdjust="spacing" textLength="228" x="27" y="284.4788">getGuestCountry(): CountryName</text><ellipse cx="18" cy="297.176" fill="#84BE84" rx="3" ry="3" style="stroke:#038048;stroke-width:1.0;"/><text fill="#000000" font-family="sans-serif" font-size="14" lengthAdjust="spacing" textLength="293" x="27" y="300.967">addAffectations(Teenager, Teenager): void</text><ellipse cx="18" cy="313.6643" fill="#84BE84" rx="3" ry="3" style="stroke:#038048;stroke-width:1.0;"/><text fill="#000000" font-family="sans-serif" font-size="14" lengthAdjust="spacing" textLength="207" x="27" y="317.4553">isAffected(Teenager): boolean</text><ellipse cx="18" cy="330.1526" fill="#84BE84" rx="3" ry="3" style="stroke:#038048;stroke-width:1.0;"/><text fill="#000000" font-family="sans-serif" font-size="14" lengthAdjust="spacing" textLength="330" x="27" y="333.9436">alreadyAffectedWith(Teenager): List&lt;Teenager&gt;</text></g></a><!--class java.io.Serializable--><g id="elem_java.io.Serializable"><rect codeLine="19" fill="#F1F1F1" height="38.2656" id="java.io.Serializable" rx="2.5" ry="2.5" style="stroke:#181818;stroke-width:0.5;" width="111" x="134" y="7"/><ellipse cx="149" cy="26.1328" fill="#B4A7E5" rx="11" ry="11" style="stroke:#181818;stroke-width:1.0;"/><path d="M145.4277,22.3979 L145.4277,20.2397 L152.8071,20.2397 L152.8071,22.3979 L150.3418,22.3979 L150.3418,30.4746 L152.8071,30.4746 L152.8071,32.6328 L145.4277,32.6328 L145.4277,30.4746 L147.8931,30.4746 L147.8931,22.3979 Z " fill="#000000"/><text fill="#000000" font-family="sans-serif" font-size="14" font-style="italic" lengthAdjust="spacing" textLength="79" x="163" y="25.5352">Serializable</text><text fill="#000000" font-family="sans-serif" font-size="10" font-style="italic" lengthAdjust="spacing" textLength="32" x="186.5" y="38.1563">java.io</text></g><!--reverse link java.io.Serializable to voyages.Exchange--><g id="link_java.io.Serializable_voyages.Exchange"><path codeLine="21" d="M189.5,66.45 C189.5,78.03 189.5,91.34 189.5,105.2 " fill="none" id="java.io.Serializable-backto-voyages.Exchange" style="stroke:#181818;stroke-width:1.0;stroke-dasharray:7.0,7.0;"/><polygon fill="none" points="182.5,66.47,189.5,46.47,196.5,66.47,182.5,66.47" style="stroke:#181818;stroke-width:1.0;"/></g><text fill="#888888" font-family="sans-serif" font-size="10" lengthAdjust="spacing" textLength="182" x="91.5" y="356.5647">UMLDoclet 2.1.0, PlantUML 1.2022.14</text><!--SRC=[XPDDJy9048Rl_ee9YGb4RC1uQXeIeqOF-960yO0SXdPArsntczs12Ef_TrjQsOh6NZexy-nyTDu205XYK9YJBJ2c2HLeaBK1fHKTkJ1a8Y6WlE0Df89aOdzwS-9CEtVbZoLQ2vt8YYs5m_FHzLkSeLhIYwfTWz5QRt19jWDeeRQ31eFPh363Z7CvdyDxbRTyJcEzKcm4sH2cgq9IT5avDlUk_L4BSq47ZONbw29DAMPaePNFh8mXnOyIETKc3w6nlf6Jff6kLwKFhKDpgRU_vJxdGy4YH-aLxlP2Dwf8zjYIs8lR4lYxsvA-rPRhsYNijT72RbRqFuT9qYe-9L9k3QOFZNNGhx2x6vHqFMQXjIHKNcPf29DDmpuBpdo-6h4vx-RxtEb6A2QJEWLwsfcG4IZ55XVIryyhhZ4Gkj9FRGS-kaluMmIYZo0uq5mjN2exW5JhylLqDxxIiNI_nbam30RLfXKxBnoloTXgfLy0]--></g></svg>