<?xml version="1.0" encoding="UTF-8" standalone="no"?><svg xmlns="http://www.w3.org/2000/svg" xmlns:xlink="http://www.w3.org/1999/xlink" contentStyleType="text/css" height="333px" preserveAspectRatio="none" style="width:380px;height:333px;background:#FFFFFF;" version="1.1" viewBox="0 0 380 333" width="380px" zoomAndPan="magnify"><defs/><g><!--class voyages.History--><a href="History.html" target="_top" title="History.html" xlink:actuate="onRequest" xlink:href="History.html" xlink:show="new" xlink:title="History.html" xlink:type="simple"><g id="elem_voyages.History"><rect codeLine="5" fill="#F1F1F1" height="202.6602" id="voyages.History" rx="2.5" ry="2.5" style="stroke:#181818;stroke-width:0.5;" width="366" x="7" y="105.27"/><ellipse cx="161.75" cy="124.4028" fill="#ADD1B2" rx="11" ry="11" style="stroke:#181818;stroke-width:1.0;"/><path d="M164.2231,130.5459 Q163.6421,130.8447 163.0029,130.9941 Q162.3638,131.1435 161.6582,131.1435 Q159.1514,131.1435 157.8315,129.4917 Q156.5117,127.8398 156.5117,124.7187 Q156.5117,121.5893 157.8315,119.9375 Q159.1514,118.2856 161.6582,118.2856 Q162.3638,118.2856 163.0112,118.435 Q163.6587,118.5845 164.2231,118.8833 L164.2231,121.6059 Q163.5923,121.0249 162.9988,120.7551 Q162.4053,120.4853 161.7744,120.4853 Q160.4297,120.4853 159.7449,121.552 Q159.0601,122.6186 159.0601,124.7187 Q159.0601,126.8105 159.7449,127.8772 Q160.4297,128.9438 161.7744,128.9438 Q162.4053,128.9438 162.9988,128.6741 Q163.5923,128.4043 164.2231,127.8232 Z " fill="#000000"/><text fill="#000000" font-family="sans-serif" font-size="14" lengthAdjust="spacing" textLength="48" x="182.25" y="123.8052">History</text><text fill="#000000" font-family="sans-serif" font-size="10" lengthAdjust="spacing" textLength="39" x="186.75" y="136.4263">voyages</text><line style="stroke:#181818;stroke-width:0.5;" x1="8" x2="372" y1="143.5356" y2="143.5356"/><rect fill="none" height="6" style="stroke:#C82930;stroke-width:1.0;" width="6" x="15" y="154.2798"/><text fill="#000000" font-family="sans-serif" font-size="14" lengthAdjust="spacing" textLength="284" x="27" y="161.0708">teenagers: ArrayList&lt;Tuple&lt;Teenager&gt;&gt;</text><rect fill="none" height="6" style="stroke:#C82930;stroke-width:1.0;" width="6" x="15" y="170.768"/><text fill="#000000" font-family="sans-serif" font-size="14" lengthAdjust="spacing" textLength="103" x="27" y="177.5591">year: LocalDate</text><rect fill="none" height="6" style="stroke:#C82930;stroke-width:1.0;" width="6" x="15" y="187.2563"/><text fill="#000000" font-family="sans-serif" font-size="14" lengthAdjust="spacing" text-decoration="underline" textLength="152" x="27" y="194.0473">serialVersionUID: long</text><line style="stroke:#181818;stroke-width:0.5;" x1="8" x2="372" y1="201.0005" y2="201.0005"/><ellipse cx="18" cy="214.7446" fill="#84BE84" rx="3" ry="3" style="stroke:#038048;stroke-width:1.0;"/><text fill="#000000" font-family="sans-serif" font-size="14" lengthAdjust="spacing" textLength="340" x="27" y="218.5356">History(ArrayList&lt;Tuple&lt;Teenager&gt;&gt;, LocalDate)</text><ellipse cx="18" cy="231.2329" fill="#84BE84" rx="3" ry="3" style="stroke:#038048;stroke-width:1.0;"/><text fill="#000000" font-family="sans-serif" font-size="14" lengthAdjust="spacing" textLength="124" x="27" y="235.0239">History(LocalDate)</text><ellipse cx="18" cy="247.7212" fill="#84BE84" rx="3" ry="3" style="stroke:#038048;stroke-width:1.0;"/><text fill="#000000" font-family="sans-serif" font-size="14" lengthAdjust="spacing" textLength="137" x="27" y="251.5122">getYear(): LocalDate</text><ellipse cx="18" cy="264.2095" fill="#84BE84" rx="3" ry="3" style="stroke:#038048;stroke-width:1.0;"/><text fill="#000000" font-family="sans-serif" font-size="14" lengthAdjust="spacing" textLength="320" x="27" y="268.0005">getTeenagers(): ArrayList&lt;Tuple&lt;Teenager&gt;&gt;</text><rect fill="#F24D5C" height="6" style="stroke:#C82930;stroke-width:1.0;" width="6" x="15" y="277.6977"/><text fill="#000000" font-family="sans-serif" font-size="14" lengthAdjust="spacing" textLength="265" x="27" y="284.4888">writeObject(ObjectOutputStream): void</text><rect fill="#F24D5C" height="6" style="stroke:#C82930;stroke-width:1.0;" width="6" x="15" y="294.186"/><text fill="#000000" font-family="sans-serif" font-size="14" lengthAdjust="spacing" textLength="250" x="27" y="300.977">readObject(ObjectInputStream): void</text></g></a><!--class java.io.Serializable--><g id="elem_java.io.Serializable"><rect codeLine="17" fill="#F1F1F1" height="38.2656" id="java.io.Serializable" rx="2.5" ry="2.5" style="stroke:#181818;stroke-width:0.5;" width="111" x="134.5" y="7"/><ellipse cx="149.5" cy="26.1328" fill="#B4A7E5" rx="11" ry="11" style="stroke:#181818;stroke-width:1.0;"/><path d="M145.9277,22.3979 L145.9277,20.2397 L153.3071,20.2397 L153.3071,22.3979 L150.8418,22.3979 L150.8418,30.4746 L153.3071,30.4746 L153.3071,32.6328 L145.9277,32.6328 L145.9277,30.4746 L148.3931,30.4746 L148.3931,22.3979 Z " fill="#000000"/><text fill="#000000" font-family="sans-serif" font-size="14" font-style="italic" lengthAdjust="spacing" textLength="79" x="163.5" y="25.5352">Serializable</text><text fill="#000000" font-family="sans-serif" font-size="10" font-style="italic" lengthAdjust="spacing" textLength="32" x="187" y="38.1563">java.io</text></g><!--reverse link java.io.Serializable to voyages.History--><g id="link_java.io.Serializable_voyages.History"><path codeLine="19" d="M190,66.14 C190,77.83 190,91.21 190,104.96 " fill="none" id="java.io.Serializable-backto-voyages.History" style="stroke:#181818;stroke-width:1.0;stroke-dasharray:7.0,7.0;"/><polygon fill="none" points="183,66.56,190,46.56,197,66.56,183,66.56" style="stroke:#181818;stroke-width:1.0;"/></g><text fill="#888888" font-family="sans-serif" font-size="10" lengthAdjust="spacing" textLength="182" x="92" y="323.5981">UMLDoclet 2.1.0, PlantUML 1.2022.14</text><!--SRC=[ZP9FQy904CNl_HI3K8XKWvQUGX0A7YfOBAY5OZsCSTILpMxO7LEYzRjtywTgRGhDPOVtVdaxoGm0W2K6XJ7P12CQKu86MHjGMj6Dis4ZbWGK9vp1If1Sscir9jve9nTw9D5QQ8HMx2deFlIUX7LfsRkgb4ulrHckoJO0BLIrNr4mcrMLl-5OpkTmA4Bpfyr4oi761l1e36P3HuQJNI8fd5HMhtV6Cq8Jm517AFl8T38Ebf55T8Is9IDGlhf4eTLqq0z0QhK-WNTLAzxVjxNE-StVxzLvQ-8trvZNh6ijTx_3ROxyvpi_Z60QBROKiLSUenqdEnwp8OnTIAh5yemxSVc37gXQ-5YEKoWcitABSJ7ISV7Vn1uNaYxckiKKVQ6BkLQrVucMWNKEX9- -VxqBrJfHtW2ijCwFwVEmhoFf5lRUx_gT5hn8LEnKk4tBCNhDBm00]--></g></svg>