<?xml version="1.0" encoding="UTF-8" standalone="no"?><svg xmlns="http://www.w3.org/2000/svg" xmlns:xlink="http://www.w3.org/1999/xlink" contentStyleType="text/css" height="416px" preserveAspectRatio="none" style="width:463px;height:416px;background:#FFFFFF;" version="1.1" viewBox="0 0 463 416" width="463px" zoomAndPan="magnify"><defs/><g><!--class voyages.Platform--><a href="Platform.html" target="_top" title="Platform.html" xlink:actuate="onRequest" xlink:href="Platform.html" xlink:show="new" xlink:title="Platform.html" xlink:type="simple"><g id="elem_voyages.Platform"><rect codeLine="5" fill="#F1F1F1" height="285.1016" id="voyages.Platform" rx="2.5" ry="2.5" style="stroke:#181818;stroke-width:0.5;" width="449" x="7" y="105.27"/><ellipse cx="198.25" cy="124.4028" fill="#ADD1B2" rx="11" ry="11" style="stroke:#181818;stroke-width:1.0;"/><path d="M200.7231,130.5459 Q200.1421,130.8447 199.5029,130.9941 Q198.8638,131.1435 198.1582,131.1435 Q195.6514,131.1435 194.3315,129.4917 Q193.0117,127.8398 193.0117,124.7187 Q193.0117,121.5893 194.3315,119.9375 Q195.6514,118.2856 198.1582,118.2856 Q198.8638,118.2856 199.5112,118.435 Q200.1587,118.5845 200.7231,118.8833 L200.7231,121.6059 Q200.0923,121.0249 199.4988,120.7551 Q198.9053,120.4853 198.2744,120.4853 Q196.9297,120.4853 196.2449,121.552 Q195.5601,122.6186 195.5601,124.7187 Q195.5601,126.8105 196.2449,127.8772 Q196.9297,128.9438 198.2744,128.9438 Q198.9053,128.9438 199.4988,128.6741 Q200.0923,128.4043 200.7231,127.8232 Z " fill="#000000"/><text fill="#000000" font-family="sans-serif" font-size="14" lengthAdjust="spacing" textLength="58" x="218.75" y="123.8052">Platform</text><text fill="#000000" font-family="sans-serif" font-size="10" lengthAdjust="spacing" textLength="39" x="228.25" y="136.4262">voyages</text><line style="stroke:#181818;stroke-width:0.5;" x1="8" x2="455" y1="143.5356" y2="143.5356"/><ellipse cx="18" cy="157.2798" fill="none" rx="3" ry="3" style="stroke:#038048;stroke-width:1.0;"/><text fill="#000000" font-family="sans-serif" font-size="14" lengthAdjust="spacing" text-decoration="underline" textLength="128" x="27" y="161.0708">SAVE_PATH: String</text><rect fill="none" height="6" style="stroke:#C82930;stroke-width:1.0;" width="6" x="15" y="170.768"/><text fill="#000000" font-family="sans-serif" font-size="14" lengthAdjust="spacing" textLength="376" x="27" y="177.5591">teenagers: Map&lt;CountryName, ArrayList&lt;Teenager&gt;&gt;</text><ellipse cx="18" cy="190.2563" fill="none" rx="3" ry="3" style="stroke:#038048;stroke-width:1.0;"/><text fill="#000000" font-family="sans-serif" font-size="14" lengthAdjust="spacing" textLength="194" x="27" y="194.0473">exchanges: List&lt;Exchange&gt;</text><rect fill="none" height="6" style="stroke:#C82930;stroke-width:1.0;" width="6" x="15" y="203.7446"/><text fill="#000000" font-family="sans-serif" font-size="14" lengthAdjust="spacing" textLength="103" x="27" y="210.5356">history: History</text><rect fill="none" height="6" style="stroke:#C82930;stroke-width:1.0;" width="6" x="15" y="220.2329"/><text fill="#000000" font-family="sans-serif" font-size="14" lengthAdjust="spacing" textLength="204" x="27" y="227.0239">importator: CsvFileImportator</text><line style="stroke:#181818;stroke-width:0.5;" x1="8" x2="455" y1="233.977" y2="233.977"/><ellipse cx="18" cy="247.7212" fill="#84BE84" rx="3" ry="3" style="stroke:#038048;stroke-width:1.0;"/><text fill="#000000" font-family="sans-serif" font-size="14" lengthAdjust="spacing" textLength="318" x="27" y="251.5122">importTeenagerFromCsv(File, boolean): String</text><ellipse cx="18" cy="264.2095" fill="#84BE84" rx="3" ry="3" style="stroke:#038048;stroke-width:1.0;"/><text fill="#000000" font-family="sans-serif" font-size="14" lengthAdjust="spacing" textLength="423" x="27" y="268.0005">getTeenagersByCountry(CountryName): ArrayList&lt;Teenager&gt;</text><ellipse cx="18" cy="280.6977" fill="#84BE84" rx="3" ry="3" style="stroke:#038048;stroke-width:1.0;"/><text fill="#000000" font-family="sans-serif" font-size="14" lengthAdjust="spacing" textLength="338" x="27" y="284.4888">getAllRepresentedCountry(): List&lt;CountryName&gt;</text><ellipse cx="18" cy="297.186" fill="#84BE84" rx="3" ry="3" style="stroke:#038048;stroke-width:1.0;"/><text fill="#000000" font-family="sans-serif" font-size="14" lengthAdjust="spacing" textLength="374" x="27" y="300.977">addExchange(CountryName, CountryName): Exchange</text><ellipse cx="18" cy="313.6743" fill="#84BE84" rx="3" ry="3" style="stroke:#038048;stroke-width:1.0;"/><text fill="#000000" font-family="sans-serif" font-size="14" lengthAdjust="spacing" textLength="136" x="27" y="317.4653">getHistory(): History</text><rect fill="#F24D5C" height="6" style="stroke:#C82930;stroke-width:1.0;" width="6" x="15" y="327.1626"/><text fill="#000000" font-family="sans-serif" font-size="14" lengthAdjust="spacing" textLength="265" x="27" y="333.9536">writeObject(ObjectOutputStream): void</text><rect fill="#F24D5C" height="6" style="stroke:#C82930;stroke-width:1.0;" width="6" x="15" y="343.6509"/><text fill="#000000" font-family="sans-serif" font-size="14" lengthAdjust="spacing" textLength="250" x="27" y="350.4419">readObject(ObjectInputStream): void</text><ellipse cx="18" cy="363.1391" fill="#84BE84" rx="3" ry="3" style="stroke:#038048;stroke-width:1.0;"/><text fill="#000000" font-family="sans-serif" font-size="14" lengthAdjust="spacing" textLength="77" x="27" y="366.9302">save(): void</text><ellipse cx="18" cy="379.6274" fill="#84BE84" rx="3" ry="3" style="stroke:#038048;stroke-width:1.0;"/><text fill="#000000" font-family="sans-serif" font-size="14" lengthAdjust="spacing" text-decoration="underline" textLength="132" x="27" y="383.4184">main(String[]): void</text></g></a><!--class java.io.Serializable--><g id="elem_java.io.Serializable"><rect codeLine="22" fill="#F1F1F1" height="38.2656" id="java.io.Serializable" rx="2.5" ry="2.5" style="stroke:#181818;stroke-width:0.5;" width="111" x="176" y="7"/><ellipse cx="191" cy="26.1328" fill="#B4A7E5" rx="11" ry="11" style="stroke:#181818;stroke-width:1.0;"/><path d="M187.4277,22.3979 L187.4277,20.2397 L194.8071,20.2397 L194.8071,22.3979 L192.3418,22.3979 L192.3418,30.4746 L194.8071,30.4746 L194.8071,32.6328 L187.4277,32.6328 L187.4277,30.4746 L189.8931,30.4746 L189.8931,22.3979 Z " fill="#000000"/><text fill="#000000" font-family="sans-serif" font-size="14" font-style="italic" lengthAdjust="spacing" textLength="79" x="205" y="25.5352">Serializable</text><text fill="#000000" font-family="sans-serif" font-size="10" font-style="italic" lengthAdjust="spacing" textLength="32" x="228.5" y="38.1563">java.io</text></g><!--reverse link java.io.Serializable to voyages.Platform--><g id="link_java.io.Serializable_voyages.Platform"><path codeLine="24" d="M231.5,66.12 C231.5,77.56 231.5,90.78 231.5,104.77 " fill="none" id="java.io.Serializable-backto-voyages.Platform" style="stroke:#181818;stroke-width:1.0;stroke-dasharray:7.0,7.0;"/><polygon fill="none" points="224.5,66.49,231.5,46.49,238.5,66.49,224.5,66.49" style="stroke:#181818;stroke-width:1.0;"/></g><text fill="#888888" font-family="sans-serif" font-size="10" lengthAdjust="spacing" textLength="182" x="133.5" y="406.0395">UMLDoclet 2.1.0, PlantUML 1.2022.14</text><!--SRC=[TPFVJzj03CVVzrTOI4YfMYAOzXHLbGe3WGG3hR2Nha9kuZQ7BdVHdPij_FZVkJIN9g6GbtE-zx4TEpO0W2K6XHdP76EQKOu6MHjGMj4tTmsfI0Weoxc4bI2Ps8zgHfng9s_rMAArS32sufcYan-JEucyqYRxgxnqF2bqYMko1u0Ml1qs6CpdZHccdCd50bwsSQldnJAoYDzWE9l-EN-yczvVHZ1Z8zHwnnmnaN8XZOtW1lFncTueDkKlL-08fiPWUIqiZ-yzDPdiF8VqFqvHkQ-9OCkS-_SMEKgThaqPmMLjj3SYoxNXgdCHdDdYGaYwsabjZXfhibyOdJaugEWHBBMMX6gmLzDmJJiNUrhwae9EQSxdazfw0QPI_gRSa2N5b3Gn1hxMJgoE6oP9quIWryX-weRfvVCTgZBiDUkV4KotooUAEQYFsmtd6tPr4sREez0YQN4d9ZtwIdq93oqM57nKsyd9KAYWxkzyqSNUwlaLhZjcvJQXCyCpCWAbUCQbfCuSFs61eT3REVPss4NhW9_TmFWr3FTctozGzNyChBIkZeURwvywbcv5luSduV487ApOgN1Ok64GMWM3Tm00]--></g></svg>