<?xml version="1.0" encoding="UTF-8" standalone="no"?><svg xmlns="http://www.w3.org/2000/svg" xmlns:xlink="http://www.w3.org/1999/xlink" contentStyleType="text/css" height="608px" preserveAspectRatio="none" style="width:422px;height:608px;background:#FFFFFF;" version="1.1" viewBox="0 0 422 608" width="422px" zoomAndPan="magnify"><defs/><g><!--class voyages.Teenager--><a href="Teenager.html" target="_top" title="Teenager.html" xlink:actuate="onRequest" xlink:href="Teenager.html" xlink:show="new" xlink:title="Teenager.html" xlink:type="simple"><g id="elem_voyages.Teenager"><rect codeLine="5" fill="#F1F1F1" height="449.9844" id="voyages.Teenager" rx="2.5" ry="2.5" style="stroke:#181818;stroke-width:0.5;" width="408" x="7" y="132.76"/><ellipse cx="174.25" cy="151.8928" fill="#ADD1B2" rx="11" ry="11" style="stroke:#181818;stroke-width:1.0;"/><path d="M176.7231,158.0359 Q176.1421,158.3347 175.5029,158.4841 Q174.8638,158.6335 174.1582,158.6335 Q171.6514,158.6335 170.3315,156.9817 Q169.0117,155.3298 169.0117,152.2087 Q169.0117,149.0793 170.3315,147.4275 Q171.6514,145.7756 174.1582,145.7756 Q174.8638,145.7756 175.5112,145.925 Q176.1587,146.0745 176.7231,146.3733 L176.7231,149.0959 Q176.0923,148.5149 175.4988,148.2451 Q174.9053,147.9753 174.2744,147.9753 Q172.9297,147.9753 172.2449,149.042 Q171.5601,150.1086 171.5601,152.2087 Q171.5601,154.3005 172.2449,155.3672 Q172.9297,156.4338 174.2744,156.4338 Q174.9053,156.4338 175.4988,156.1641 Q176.0923,155.8943 176.7231,155.3132 Z " fill="#000000"/><text fill="#000000" font-family="sans-serif" font-size="14" lengthAdjust="spacing" textLength="65" x="194.75" y="151.2952">Teenager</text><text fill="#000000" font-family="sans-serif" font-size="10" lengthAdjust="spacing" textLength="39" x="207.75" y="163.9163">voyages</text><line style="stroke:#181818;stroke-width:0.5;" x1="8" x2="414" y1="171.0256" y2="171.0256"/><rect fill="none" height="6" style="stroke:#C82930;stroke-width:1.0;" width="6" x="15" y="181.7698"/><text fill="#000000" font-family="sans-serif" font-size="14" lengthAdjust="spacing" textLength="354" x="27" y="188.5608">requirements: HashMap&lt;CriterionName, Criterion&gt;</text><rect fill="none" height="6" style="stroke:#C82930;stroke-width:1.0;" width="6" x="15" y="198.258"/><text fill="#000000" font-family="sans-serif" font-size="14" lengthAdjust="spacing" text-decoration="underline" textLength="65" x="27" y="205.0491">count: int</text><rect fill="none" height="6" style="stroke:#C82930;stroke-width:1.0;" width="6" x="15" y="214.7463"/><text fill="#000000" font-family="sans-serif" font-size="14" lengthAdjust="spacing" textLength="39" x="27" y="221.5373">id: int</text><rect fill="none" height="6" style="stroke:#C82930;stroke-width:1.0;" width="6" x="15" y="231.2346"/><text fill="#000000" font-family="sans-serif" font-size="14" lengthAdjust="spacing" textLength="115" x="27" y="238.0256">firstName: String</text><rect fill="none" height="6" style="stroke:#C82930;stroke-width:1.0;" width="6" x="15" y="247.7229"/><text fill="#000000" font-family="sans-serif" font-size="14" lengthAdjust="spacing" textLength="112" x="27" y="254.5139">lastName: String</text><rect fill="none" height="6" style="stroke:#C82930;stroke-width:1.0;" width="6" x="15" y="264.2112"/><text fill="#000000" font-family="sans-serif" font-size="14" lengthAdjust="spacing" textLength="131" x="27" y="271.0022">birthday: LocalDate</text><rect fill="none" height="6" style="stroke:#C82930;stroke-width:1.0;" width="6" x="15" y="280.6995"/><text fill="#000000" font-family="sans-serif" font-size="14" lengthAdjust="spacing" textLength="154" x="27" y="287.4905">country: CountryName</text><line style="stroke:#181818;stroke-width:0.5;" x1="8" x2="414" y1="294.4436" y2="294.4436"/><ellipse cx="18" cy="308.1877" fill="#84BE84" rx="3" ry="3" style="stroke:#038048;stroke-width:1.0;"/><text fill="#000000" font-family="sans-serif" font-size="14" lengthAdjust="spacing" textLength="341" x="27" y="311.9788">Teenager(String, String, LocalDate, CountryName)</text><ellipse cx="18" cy="324.676" fill="#84BE84" rx="3" ry="3" style="stroke:#038048;stroke-width:1.0;"/><text fill="#000000" font-family="sans-serif" font-size="14" lengthAdjust="spacing" textLength="71" x="27" y="328.467">getId(): int</text><ellipse cx="18" cy="341.1643" fill="#84BE84" rx="3" ry="3" style="stroke:#038048;stroke-width:1.0;"/><text fill="#000000" font-family="sans-serif" font-size="14" lengthAdjust="spacing" textLength="150" x="27" y="344.9553">getFirstName(): String</text><ellipse cx="18" cy="357.6526" fill="#84BE84" rx="3" ry="3" style="stroke:#038048;stroke-width:1.0;"/><text fill="#000000" font-family="sans-serif" font-size="14" lengthAdjust="spacing" textLength="147" x="27" y="361.4436">getLastName(): String</text><ellipse cx="18" cy="374.1409" fill="#84BE84" rx="3" ry="3" style="stroke:#038048;stroke-width:1.0;"/><text fill="#000000" font-family="sans-serif" font-size="14" lengthAdjust="spacing" textLength="162" x="27" y="377.9319">getBirthday(): LocalDate</text><ellipse cx="18" cy="390.6291" fill="#84BE84" rx="3" ry="3" style="stroke:#038048;stroke-width:1.0;"/><text fill="#000000" font-family="sans-serif" font-size="14" lengthAdjust="spacing" textLength="189" x="27" y="394.4202">getCountry(): CountryName</text><ellipse cx="18" cy="407.1174" fill="#84BE84" rx="3" ry="3" style="stroke:#038048;stroke-width:1.0;"/><text fill="#000000" font-family="sans-serif" font-size="14" lengthAdjust="spacing" textLength="382" x="27" y="410.9084">getRequirement(): HashMap&lt;CriterionName, Criterion&gt;</text><ellipse cx="18" cy="423.6057" fill="#84BE84" rx="3" ry="3" style="stroke:#038048;stroke-width:1.0;"/><text fill="#000000" font-family="sans-serif" font-size="14" lengthAdjust="spacing" textLength="284" x="27" y="427.3967">compatibleWithGuest(Teenager): boolean</text><ellipse cx="18" cy="440.094" fill="#84BE84" rx="3" ry="3" style="stroke:#038048;stroke-width:1.0;"/><text fill="#000000" font-family="sans-serif" font-size="14" lengthAdjust="spacing" textLength="380" x="27" y="443.885">compatibleWithGuestAnimalAllergy(Teenager): boolean</text><ellipse cx="18" cy="456.5823" fill="#84BE84" rx="3" ry="3" style="stroke:#038048;stroke-width:1.0;"/><text fill="#000000" font-family="sans-serif" font-size="14" lengthAdjust="spacing" textLength="311" x="27" y="460.3733">compatibleWithGuestDiet(Teenager): boolean</text><ellipse cx="18" cy="473.0705" fill="#84BE84" rx="3" ry="3" style="stroke:#038048;stroke-width:1.0;"/><text fill="#000000" font-family="sans-serif" font-size="14" lengthAdjust="spacing" textLength="267" x="27" y="476.8616">totalCompatibleHobbies(Teenager): int</text><ellipse cx="18" cy="489.5588" fill="#84BE84" rx="3" ry="3" style="stroke:#038048;stroke-width:1.0;"/><text fill="#000000" font-family="sans-serif" font-size="14" lengthAdjust="spacing" textLength="221" x="27" y="493.3498">purgeInvalidRequirement(): void</text><ellipse cx="18" cy="506.0471" fill="#84BE84" rx="3" ry="3" style="stroke:#038048;stroke-width:1.0;"/><text fill="#000000" font-family="sans-serif" font-size="14" lengthAdjust="spacing" textLength="195" x="27" y="509.8381">addCriterion(Criterion): void</text><ellipse cx="18" cy="522.5354" fill="#84BE84" rx="3" ry="3" style="stroke:#038048;stroke-width:1.0;"/><text fill="#000000" font-family="sans-serif" font-size="14" lengthAdjust="spacing" textLength="283" x="27" y="526.3264">addCriterion(CriterionName, String): void</text><rect fill="#F24D5C" height="6" style="stroke:#C82930;stroke-width:1.0;" width="6" x="15" y="536.0237"/><text fill="#000000" font-family="sans-serif" font-size="14" lengthAdjust="spacing" textLength="250" x="27" y="542.8147">readObject(ObjectInputStream): void</text><ellipse cx="18" cy="555.512" fill="#84BE84" rx="3" ry="3" style="stroke:#038048;stroke-width:1.0;"/><text fill="#000000" font-family="sans-serif" font-size="14" lengthAdjust="spacing" textLength="179" x="27" y="559.303">compareTo(Teenager): int</text><ellipse cx="18" cy="572.0002" fill="#84BE84" rx="3" ry="3" style="stroke:#038048;stroke-width:1.0;"/><text fill="#000000" font-family="sans-serif" font-size="14" lengthAdjust="spacing" textLength="125" x="27" y="575.7913">isGhost(): boolean</text></g></a><!--class java.io.Serializable--><g id="elem_java.io.Serializable"><rect codeLine="32" fill="#F1F1F1" height="38.2656" id="java.io.Serializable" rx="2.5" ry="2.5" style="stroke:#181818;stroke-width:0.5;" width="111" x="59.5" y="22.25"/><ellipse cx="74.5" cy="41.3828" fill="#B4A7E5" rx="11" ry="11" style="stroke:#181818;stroke-width:1.0;"/><path d="M70.9277,37.6479 L70.9277,35.4897 L78.3071,35.4897 L78.3071,37.6479 L75.8418,37.6479 L75.8418,45.7246 L78.3071,45.7246 L78.3071,47.8828 L70.9277,47.8828 L70.9277,45.7246 L73.3931,45.7246 L73.3931,37.6479 Z " fill="#000000"/><text fill="#000000" font-family="sans-serif" font-size="14" font-style="italic" lengthAdjust="spacing" textLength="79" x="88.5" y="40.7852">Serializable</text><text fill="#000000" font-family="sans-serif" font-size="10" font-style="italic" lengthAdjust="spacing" textLength="32" x="112" y="53.4063">java.io</text></g><!--class java.lang.Comparable--><g id="elem_java.lang.Comparable"><rect codeLine="33" fill="#F1F1F1" height="62.7539" id="java.lang.Comparable" rx="2.5" ry="2.5" style="stroke:#181818;stroke-width:0.5;" width="205" x="205.5" y="10"/><ellipse cx="234" cy="29.1328" fill="#B4A7E5" rx="11" ry="11" style="stroke:#181818;stroke-width:1.0;"/><path d="M230.4277,25.3979 L230.4277,23.2397 L237.8071,23.2397 L237.8071,25.3979 L235.3418,25.3979 L235.3418,33.4746 L237.8071,33.4746 L237.8071,35.6328 L230.4277,35.6328 L230.4277,33.4746 L232.8931,33.4746 L232.8931,25.3979 Z " fill="#000000"/><text fill="#000000" font-family="sans-serif" font-size="14" font-style="italic" lengthAdjust="spacing" textLength="84" x="251" y="28.5352">Comparable</text><text fill="#000000" font-family="sans-serif" font-size="10" font-style="italic" lengthAdjust="spacing" textLength="44" x="271" y="41.1563">java.lang</text><rect fill="#FFFFFF" height="16.1328" style="stroke:#181818;stroke-width:1.0;stroke-dasharray:2.0,2.0;" width="57" x="356.5" y="7"/><text fill="#000000" font-family="sans-serif" font-size="12" font-style="italic" lengthAdjust="spacing" textLength="55" x="357.5" y="19.6016">Teenager</text><line style="stroke:#181818;stroke-width:0.5;" x1="206.5" x2="409.5" y1="48.2656" y2="48.2656"/><ellipse cx="216.5" cy="62.0098" fill="#84BE84" rx="3" ry="3" style="stroke:#038048;stroke-width:1.0;"/><text fill="#000000" font-family="sans-serif" font-size="14" font-style="italic" lengthAdjust="spacing" textLength="179" x="225.5" y="65.8008">compareTo(Teenager): int</text></g><!--reverse link java.io.Serializable to voyages.Teenager--><g id="link_java.io.Serializable_voyages.Teenager"><path codeLine="37" d="M126.65,80.54 C131.09,95.06 136.52,112.84 142.47,132.33 " fill="none" id="java.io.Serializable-backto-voyages.Teenager" style="stroke:#181818;stroke-width:1.0;stroke-dasharray:7.0,7.0;"/><polygon fill="none" points="119.72,82.81,120.58,61.64,133.11,78.72,119.72,82.81" style="stroke:#181818;stroke-width:1.0;"/></g><!--reverse link java.lang.Comparable to voyages.Teenager--><g id="link_java.lang.Comparable_voyages.Teenager"><path codeLine="38" d="M292.34,93.13 C288.71,104.9 284.61,118.18 280.24,132.36 " fill="none" id="java.lang.Comparable-backto-voyages.Teenager" style="stroke:#181818;stroke-width:1.0;stroke-dasharray:7.0,7.0;"/><polygon fill="none" points="285.94,91.14,298.52,74.09,299.31,95.27,285.94,91.14" style="stroke:#181818;stroke-width:1.0;"/></g><text fill="#888888" font-family="sans-serif" font-size="10" lengthAdjust="spacing" textLength="182" x="113" y="598.4123">UMLDoclet 2.1.0, PlantUML 1.2022.14</text><!--SRC=[bLHDRzim3BtlLn051YHeQhJ3Ja4Ge4kmDa2w3Kk77ReUQ9k9LSYI9p41qYx_VPA_wtoioqKot-Cp7naJ0C0IWyAKR8OHBIX3WwmDAAtedOCX4J41fHblOIb8nhORJOaJxS9vF99eBPoDh7YcuTN7yJsHmXMPNweCNOutUkiYzWpGGdaFAXeyF5JN8E5KFZx2IwxhVnU6Vg-5ePGKso7SeatkC1jDZ60oGgilpiK0wiTndVXY6Lb4ExY8z5hn48JYHbN4dS1I6CjUR0WBDaAj6iYvEuA4md0IutO8SnsXd29J0-QlDGwR51SlKQFdbUDUeJc0wgoL1kt4VfEv8fx5lVxh-dtqSsN1WvrIFJx7a_2dqeo7z-ruHbcF9npqv2ZVcsbvsjl7THxfD7C32oNz59pShCbohsgIKmgrbeJg9FzQYHJbjPHaLjl_JPuAElr2renoKYVUwZ0KPDifhmQIhSsAPcg3KiIThcoqY1iYnd7TZrvzUoEjw6SnpMwA-tGm_Xe-KSIzufYfRCsEJ9ZkwUSjCNIlZpeIzYRHDdVGRiwkM0AEIcRfrabh4InSZSx_Cxf-jPR14sum43fV1kKzQ5EFwkNTDuVK9AfLe-UVWeOygXoDMulb1KFB1YFU_SDxwUzGeJ3w4mHx-woXT-euGYzsA7c_iDJQ7p_kvbCTIRUbFmHNmUK0lZafTb5ulo5Z_L-W_nS0]--></g></svg>