<?xml version="1.0" encoding="UTF-8" standalone="no"?><svg xmlns="http://www.w3.org/2000/svg" xmlns:xlink="http://www.w3.org/1999/xlink" contentStyleType="text/css" height="366px" preserveAspectRatio="none" style="width:191px;height:366px;background:#FFFFFF;" version="1.1" viewBox="0 0 191 366" width="191px" zoomAndPan="magnify"><defs/><g><!--class voyages.Tuple--><a href="Tuple.html" target="_top" title="Tuple.html" xlink:actuate="onRequest" xlink:href="Tuple.html" xlink:show="new" xlink:title="Tuple.html" xlink:type="simple"><g id="elem_voyages.Tuple"><rect codeLine="5" fill="#F1F1F1" height="235.6367" id="voyages.Tuple" rx="2.5" ry="2.5" style="stroke:#181818;stroke-width:0.5;" width="169" x="11.5" y="105.26"/><ellipse cx="66.75" cy="124.3928" fill="#ADD1B2" rx="11" ry="11" style="stroke:#181818;stroke-width:1.0;"/><path d="M69.2231,130.5359 Q68.6421,130.8347 68.0029,130.9841 Q67.3638,131.1335 66.6582,131.1335 Q64.1514,131.1335 62.8315,129.4817 Q61.5117,127.8298 61.5117,124.7087 Q61.5117,121.5793 62.8315,119.9275 Q64.1514,118.2756 66.6582,118.2756 Q67.3638,118.2756 68.0112,118.425 Q68.6587,118.5745 69.2231,118.8733 L69.2231,121.5959 Q68.5923,121.0149 67.9988,120.7451 Q67.4053,120.4753 66.7744,120.4753 Q65.4297,120.4753 64.7449,121.542 Q64.0601,122.6086 64.0601,124.7087 Q64.0601,126.8005 64.7449,127.8672 Q65.4297,128.9338 66.7744,128.9338 Q67.4053,128.9338 67.9988,128.6641 Q68.5923,128.3943 69.2231,127.8132 Z " fill="#000000"/><text fill="#000000" font-family="sans-serif" font-size="14" lengthAdjust="spacing" textLength="39" x="87.25" y="123.7952">Tuple</text><text fill="#000000" font-family="sans-serif" font-size="10" lengthAdjust="spacing" textLength="39" x="87.25" y="136.4163">voyages</text><rect fill="#FFFFFF" height="16.1328" style="stroke:#181818;stroke-width:1.0;stroke-dasharray:2.0,2.0;" width="9" x="174.5" y="102.26"/><text fill="#000000" font-family="sans-serif" font-size="12" font-style="italic" lengthAdjust="spacing" textLength="7" x="175.5" y="114.8616">E</text><line style="stroke:#181818;stroke-width:0.5;" x1="12.5" x2="179.5" y1="143.5256" y2="143.5256"/><rect fill="none" height="6" style="stroke:#C82930;stroke-width:1.0;" width="6" x="19.5" y="154.2698"/><text fill="#000000" font-family="sans-serif" font-size="14" lengthAdjust="spacing" textLength="43" x="31.5" y="161.0608">first: E</text><rect fill="none" height="6" style="stroke:#C82930;stroke-width:1.0;" width="6" x="19.5" y="170.758"/><text fill="#000000" font-family="sans-serif" font-size="14" lengthAdjust="spacing" textLength="65" x="31.5" y="177.5491">second: E</text><line style="stroke:#181818;stroke-width:0.5;" x1="12.5" x2="179.5" y1="184.5022" y2="184.5022"/><ellipse cx="22.5" cy="198.2463" fill="#84BE84" rx="3" ry="3" style="stroke:#038048;stroke-width:1.0;"/><text fill="#000000" font-family="sans-serif" font-size="14" lengthAdjust="spacing" textLength="73" x="31.5" y="202.0373">Tuple(E, E)</text><ellipse cx="22.5" cy="214.7346" fill="#84BE84" rx="3" ry="3" style="stroke:#038048;stroke-width:1.0;"/><text fill="#000000" font-family="sans-serif" font-size="14" lengthAdjust="spacing" textLength="49" x="31.5" y="218.5256">Tuple()</text><ellipse cx="22.5" cy="231.2229" fill="#84BE84" rx="3" ry="3" style="stroke:#038048;stroke-width:1.0;"/><text fill="#000000" font-family="sans-serif" font-size="14" lengthAdjust="spacing" textLength="78" x="31.5" y="235.0139">getFirst(): E</text><ellipse cx="22.5" cy="247.7112" fill="#84BE84" rx="3" ry="3" style="stroke:#038048;stroke-width:1.0;"/><text fill="#000000" font-family="sans-serif" font-size="14" lengthAdjust="spacing" textLength="98" x="31.5" y="251.5022">getSecond(): E</text><ellipse cx="22.5" cy="264.1995" fill="#84BE84" rx="3" ry="3" style="stroke:#038048;stroke-width:1.0;"/><text fill="#000000" font-family="sans-serif" font-size="14" lengthAdjust="spacing" textLength="105" x="31.5" y="267.9905">setFirst(E): void</text><ellipse cx="22.5" cy="280.6877" fill="#84BE84" rx="3" ry="3" style="stroke:#038048;stroke-width:1.0;"/><text fill="#000000" font-family="sans-serif" font-size="14" lengthAdjust="spacing" textLength="125" x="31.5" y="284.4788">setSecond(E): void</text><ellipse cx="22.5" cy="297.176" fill="#84BE84" rx="3" ry="3" style="stroke:#038048;stroke-width:1.0;"/><text fill="#000000" font-family="sans-serif" font-size="14" lengthAdjust="spacing" textLength="56" x="31.5" y="300.967">get(E): E</text><ellipse cx="22.5" cy="313.6643" fill="#84BE84" rx="3" ry="3" style="stroke:#038048;stroke-width:1.0;"/><text fill="#000000" font-family="sans-serif" font-size="14" lengthAdjust="spacing" textLength="94" x="31.5" y="317.4553">put(E, E): void</text><ellipse cx="22.5" cy="330.1526" fill="#84BE84" rx="3" ry="3" style="stroke:#038048;stroke-width:1.0;"/><text fill="#000000" font-family="sans-serif" font-size="14" lengthAdjust="spacing" text-decoration="underline" textLength="143" x="31.5" y="333.9436">equals(E, E): boolean</text></g></a><!--class java.io.Serializable--><g id="elem_java.io.Serializable"><rect codeLine="19" fill="#F1F1F1" height="38.2656" id="java.io.Serializable" rx="2.5" ry="2.5" style="stroke:#181818;stroke-width:0.5;" width="111" x="40.5" y="7"/><ellipse cx="55.5" cy="26.1328" fill="#B4A7E5" rx="11" ry="11" style="stroke:#181818;stroke-width:1.0;"/><path d="M51.9277,22.3979 L51.9277,20.2397 L59.3071,20.2397 L59.3071,22.3979 L56.8418,22.3979 L56.8418,30.4746 L59.3071,30.4746 L59.3071,32.6328 L51.9277,32.6328 L51.9277,30.4746 L54.3931,30.4746 L54.3931,22.3979 Z " fill="#000000"/><text fill="#000000" font-family="sans-serif" font-size="14" font-style="italic" lengthAdjust="spacing" textLength="79" x="69.5" y="25.5352">Serializable</text><text fill="#000000" font-family="sans-serif" font-size="10" font-style="italic" lengthAdjust="spacing" textLength="32" x="93" y="38.1563">java.io</text></g><!--reverse link java.io.Serializable to voyages.Tuple--><g id="link_java.io.Serializable_voyages.Tuple"><path codeLine="21" d="M96,66.45 C96,78.03 96,91.34 96,105.2 " fill="none" id="java.io.Serializable-backto-voyages.Tuple" style="stroke:#181818;stroke-width:1.0;stroke-dasharray:7.0,7.0;"/><polygon fill="none" points="89,66.47,96,46.47,103,66.47,89,66.47" style="stroke:#181818;stroke-width:1.0;"/></g><text fill="#888888" font-family="sans-serif" font-size="10" lengthAdjust="spacing" textLength="182" x="0" y="356.5647">UMLDoclet 2.1.0, PlantUML 1.2022.14</text><!--SRC=[RPB1Ri8m38RlUmeBQH885i6q4weuhJjjqYIs4-DWMXSofN5NXqh0UFUbeMXjjrpYVFxz9x83023am69EKc12IogmHCSbMBPquzEmqoa1vOKxGAR9fDAdERaTUnnuOb041f7e8yrd3uktVM7empRdwQBY0sv91e02JQo29eeNi5g5KErSRjPhE0N7UjrbkXGtX_YN22LiqpOQX-9XF85ur8Sji2NtLBiDHvrYZvV1iiVbAeyzhrYddLHJyZVdxG9jEHLxTtbSJtiIXqudPnZJrnwDN4KRPaDeW-vywQwsZihCpwdLuIML6eq-ugRJw4-iK6aEZMvYrPPU3F_BGFIjL7SupMoflXuovdfxVtb-vCJuttElPcewWLU3rdaAjnMLejaEHpy0]--></g></svg>